<svg t="1732389472617" class="icon" viewBox="0 0 1024 1024" version="1.1" xmlns="http://www.w3.org/2000/svg" p-id="69175" width="200" height="200"><path d="M701.525333 0H207.317333A121.898667 121.898667 0 0 0 85.333333 121.557333v780.8A121.941333 121.941333 0 0 0 207.317333 1024H816.64A121.941333 121.941333 0 0 0 938.666667 902.357333V259.925333z m167.253334 902.357333a52.096 52.096 0 0 1-52.138667 51.968H207.317333a52.096 52.096 0 0 1-52.138666-51.968v-780.8a52.096 52.096 0 0 1 52.138666-51.925333H649.813333V258.986667a27.861333 27.861333 0 0 0 27.904 27.818666h191.061334z m0-615.424l-7.893334-8.533333 7.893334 8.533333z" fill="currentColor" p-id="69176"></path><path d="M580.650667 765.056h-276.053334a22.997333 22.997333 0 1 0 0 45.994667h276.053334a22.997333 22.997333 0 1 0 0-45.994667z" fill="currentColor" p-id="69177"></path><path d="M304.341333 258.986667h115.2a22.997333 22.997333 0 0 0 0-45.994667h-115.2a22.997333 22.997333 0 1 0 0 45.994667z" fill="currentColor" p-id="69178"></path><path d="M720.341333 580.992H303.701333a23.04 23.04 0 1 0 0 46.037333h416.64a23.04 23.04 0 1 0 0-46.037333z" fill="currentColor" p-id="69179"></path><path d="M280.490667 419.925333a23.082667 23.082667 0 0 0 23.168 23.04h416.64a23.04 23.04 0 1 0 0-46.037333H303.658667a23.125333 23.125333 0 0 0-23.168 22.997333z" fill="currentColor" p-id="69180"></path></svg>
