<svg t="1736710216338" class="icon" viewBox="0 0 1024 1024" version="1.1" xmlns="http://www.w3.org/2000/svg" p-id="13522" width="200" height="200"><path d="M902.2464 903.611733H121.685333c-33.792 0-61.269333-27.511467-61.269333-61.303466V181.691733c0-33.792 27.477333-61.303467 61.269333-61.303466h780.561067c33.792 0 61.303467 27.511467 61.303467 61.303466v660.616534c0 33.792-27.511467 61.303467-61.303467 61.303466zM121.685333 172.9536a8.772267 8.772267 0 0 0-8.738133 8.738133v660.616534c0 4.8128 3.925333 8.738133 8.738133 8.738133h780.561067a8.772267 8.772267 0 0 0 8.738133-8.738133V181.691733a8.772267 8.772267 0 0 0-8.738133-8.738133H121.685333z" fill="currentColor" p-id="13523"></path><path d="M938.2912 383.0784H85.674667c-13.960533 0-25.258667-11.776-25.258667-26.282667 0-14.506667 11.298133-26.282667 25.258667-26.282666H938.325333c13.9264 0 25.258667 11.776 25.258667 26.282666 0 14.506667-11.298133 26.282667-25.258667 26.282667zM172.475733 251.6992a35.0208 35.0208 0 1 0 70.0416 0 35.0208 35.0208 0 0 0-70.0416 0zM277.504 251.6992a35.0208 35.0208 0 1 0 70.075733 0 35.0208 35.0208 0 0 0-70.0416 0zM382.634667 251.6992a35.054933 35.054933 0 1 0 70.109866 0 35.054933 35.054933 0 0 0-70.075733 0zM448.648533 653.994667h154.5216a30.890667 30.890667 0 1 1 0 61.815466h-154.5216a30.890667 30.890667 0 0 1 0-61.781333zM251.5968 483.054933a30.9248 30.9248 0 0 1 43.690667 0l87.04 87.04 0.4096 0.375467a30.9248 30.9248 0 0 1 0 43.690667l-0.443734 0.4096-87.005866 87.04a30.890667 30.890667 0 1 1-43.690667-43.7248l65.536-65.536-65.536-65.570134a30.890667 30.890667 0 0 1 0-43.7248z" fill="currentColor" p-id="13524"></path></svg>
