<svg t="1736698622525" class="icon" viewBox="0 0 1024 1024" version="1.1" xmlns="http://www.w3.org/2000/svg" p-id="36266" width="200" height="200"><path d="M954.3936 739.27168l-75.6992-33.90464-22.60992-50.11968c25.88672-15.76448 47.744-37.18144 63.80544-63.20128 40.15104-64.8448 36.13696-148.72576-10.40896-213.41696L825.60512 261.7344c-17.69472-24.68352-50.86208-33.75616-78.6688-21.12l-173.11744 77.77792c-27.81184 12.4928-43.13088 43.13088-36.43392 72.87296l31.8208 140.3904c17.55648 77.77792 77.4912 136.38144 152.73984 149.46304 11.00288 1.92512 22.01088 2.82624 33.01376 2.82624 19.18464 0 38.2208-2.97472 56.65792-8.6272l22.60992 50.26304-24.83712 78.97088c-8.03328 25.57952 17.83808 48.4864 42.23488 37.62688l102.76352-46.24896c24.54528-11.15136 24.54528-45.80352 0.00512-56.65792z m-208.95232-269.47584c-65.14176 7.43424-122.3936 2.82624-164.78208-24.09472l-13.824-61.12256c-3.72736-16.06144 4.4544-32.56832 19.4816-39.26016l173.1072-77.77792c15.0272-6.69696 32.8704-1.93536 42.38848 11.44832l82.24256 114.51392c-61.28128-0.1536-101.87776 38.07232-138.61376 76.29312zM450.08896 318.24896L276.97664 240.47104c-27.81184-12.4928-60.97408-3.57376-78.67392 21.12l-83.88096 116.8896c-46.54592 64.8448-50.56512 148.57216-10.40896 213.41696 16.06144 26.01984 37.92384 47.4368 63.80032 63.2064l-22.60992 50.11968-75.6992 33.90464c-24.39168 10.85952-24.39168 45.51168-0.14848 56.50944l102.76864 46.25408c24.39168 11.00288 50.11968-12.05248 42.23488-37.632l-24.83712-78.96576 22.60992-50.26816c18.44224 5.65248 37.47328 8.6272 56.65792 8.6272a188.928 188.928 0 0 0 33.01888-2.82624c75.10528-13.08672 135.04-71.68 152.73472-149.45792l31.82592-140.3904c6.84544-29.59872-8.4736-60.2368-36.28032-72.7296z m7.58272 66.3296l-13.83424 61.12256c-42.38336 26.92096-99.64032 31.52896-164.78208 24.09472-36.73088-38.2208-77.184-76.29312-138.60864-76.29312L222.5408 278.9888a34.8928 34.8928 0 0 1 28.2624-14.42304 36.4544 36.4544 0 0 1 14.12608 2.97472l173.11232 77.77792c15.01696 6.68672 23.19872 23.19872 19.63008 39.26016zM512.1024 179.0464a14.91456 14.91456 0 0 0-14.8736 14.8736v46.99136c0 8.18176 6.69184 14.8736 14.8736 14.8736s14.86848-6.69184 14.86848-14.8736v-46.99136a14.90944 14.90944 0 0 0-14.86848-14.8736zM435.21536 247.60832a14.90944 14.90944 0 0 0 13.23008 8.17664 13.9264 13.9264 0 0 0 6.69696-1.63328 15.03744 15.03744 0 0 0 6.69184-19.93216l-21.12-42.0864c-3.71712-7.28576-12.64128-10.26048-19.93216-6.54336s-10.26048 12.64128-6.69184 19.92704l21.12512 42.09152zM569.06752 254.15168c2.0736 1.04448 4.4544 1.63328 6.69184 1.63328 5.504 0 10.70592-2.97472 13.2352-8.17664l21.11488-42.09152c3.72224-7.28576 0.74752-16.20992-6.69184-19.92704a14.80192 14.80192 0 0 0-19.92704 6.54336l-21.12512 42.0864c-3.56352 7.43936-0.58368 16.36352 6.70208 19.93216z" fill="currentColor" p-id="36267"></path></svg>
