<?xml version="1.0" standalone="no"?>
<!DOCTYPE svg PUBLIC "-//W3C//DTD SVG 1.1//EN" "http://www.w3.org/Graphics/SVG/1.1/DTD/svg11.dtd">
<svg t="1692218596308" class="icon" viewBox="0 0 1024 1024" version="1.1" xmlns="http://www.w3.org/2000/svg" p-id="58259" width="200" height="200">
<defs>
<style type="text/css"></style>
</defs>
<path d="M469.065143 853.430857c0-47.104 38.180571-85.284571 85.284571-85.284571h383.780572c47.104 0 85.284571 38.180571 85.284571 85.284571v85.284572A85.284571 85.284571 0 0 1 938.130286 1024H554.422857a85.284571 85.284571 0 0 1-85.284571-85.284571h-298.422857a42.642286 42.642286 0 0 1-42.715429-42.642286V341.723429a26.038857 26.038857 0 0 1 1.316571-5.705143 170.569143 170.569143 0 1 1 82.651429 0 26.038857 26.038857 0 0 1 1.316571 5.705143v170.569142h255.853715c0-47.104 38.180571-85.284571 85.284571-85.284571h383.780572c47.104 0 85.284571 38.180571 85.284571 85.284571V597.577143c0 47.104-38.180571 85.284571-85.284571 85.284571H554.422857A85.284571 85.284571 0 0 1 469.065143 597.577143H213.211429v255.853714h255.853714z m128 85.284572h298.422857a42.642286 42.642286 0 0 0 0-85.284572h-298.422857a42.642286 42.642286 0 0 0 0 85.284572zM255.780571 171.154286a85.284571 85.284571 0 1 0-170.569142 0 85.284571 85.284571 0 0 0 170.569142 0z m341.138286 426.422857h298.496a42.642286 42.642286 0 1 0 0-85.284572h-298.422857a42.642286 42.642286 0 0 0 0 85.284572z m341.138286-255.853714H554.422857a85.284571 85.284571 0 0 1-85.284571-85.284572V171.154286c0-47.104 38.180571-85.284571 85.284571-85.284572h383.780572c47.104 0 85.284571 38.180571 85.284571 85.284572v85.284571a85.284571 85.284571 0 0 1-85.284571 85.284572z m-42.642286-170.569143h-298.422857a42.642286 42.642286 0 0 0 0 85.284571h298.422857a42.642286 42.642286 0 0 0 0-85.284571z" p-id="58260"></path>
</svg>