<svg t="1736629773217" class="icon" viewBox="0 0 1024 1024" version="1.1" xmlns="http://www.w3.org/2000/svg" p-id="89425" width="200" height="200"><path d="M983.80562 228.193325c19.143116-71.103002 27.347308-207.839544-98.450311-226.98266-103.919772-10.938923-224.247929 54.694617-287.146738 98.450311-19.143116-2.734731-43.755693-5.469462-65.63354-5.469462-164.08385-2.734731-270.738353 51.959886-363.719202 172.288043C136.039059 310.23525 105.95702 384.072983 95.018096 466.114908c46.490424-79.307194 188.696428-224.247929 336.371894-281.677276 0 0-226.98266 161.34912-336.371894 391.06651v2.734731c-5.469462 10.938923-10.938923 19.143116-16.408385 32.81677-109.389234 270.738353-19.143116 388.331779 62.89881 407.474895 76.572464 19.143116 183.226966-16.408385 268.003622-109.389233 144.940735 32.81677 289.881469-5.469462 341.841355-32.81677 101.185041-54.694617 172.288043-155.879658 188.696428-257.0647H663.842111s-13.673654 87.511387-161.349119 87.511387c-136.736542 0-144.940735-158.614389-144.940735-158.614388h590.701862s10.938923-172.288043-73.837733-287.146739c-49.225155-62.898809-112.123964-120.328157-199.635351-150.410196 27.347308-19.143116 73.837733-51.959886 114.858695-60.164079 76.572464-19.143116 125.797619-8.204193 158.614389 49.225156 43.755693 76.572464-24.612578 251.595237-24.612578 251.595237s38.286232-49.225155 60.164079-123.062888zM371.225911 900.937112c-117.593426 95.715579-213.309006 84.776656-251.595237 27.347309-32.81677-51.959886-38.286232-139.471273 0-262.534161C138.77379 712.240684 166.121098 758.731108 207.142061 799.752071c49.225155 49.225155 106.654503 82.041925 164.08385 101.185041z m-5.469461-494.986282s5.469462-114.858695 128.532349-123.062888c109.389234-10.938923 164.08385 38.286232 180.492236 128.53235l-309.024585-5.469462z" fill="currentColor" p-id="89426"></path></svg>
