<svg t="1736708544397" class="icon" viewBox="0 0 1024 1024" version="1.1" xmlns="http://www.w3.org/2000/svg" p-id="40527" width="200" height="200"><path d="M868.949333 858.197333c-27.392 82.176-119.594667 100.864-212.736 114.773334l-19.925333 2.901333c-12.16 1.834667-24.32 3.584-36.266667 5.461333 0-1.28-55.594667-1.578667-84.821333-1.706666h-17.578667c-88.448-10.453333-173.482667-22.613333-244.650666-53.76 187.392 45.098667 461.525333 41.6 593.408-53.845334 1.92-1.408 3.84-3.2 5.717333-5.12 5.162667-4.821333 10.581333-9.984 16.853333-8.704zM128 818.218667c1.792-53.76 130.133333-69.333333 170.026667-34.688-5.930667 1.408-14.293333 1.877333-23.552 2.432-25.514667 1.664-57.173333 3.669333-59.690667 25.344-1.749333 12.117333 19.072 26.026667 32.981333 31.189333 76.373333 29.525333 230.784 32.981333 359.125334 19.157333 58.965333-6.997333 170.069333-26.026667 156.16-86.784 17.365333 1.749333 32.981333 13.909333 36.437333 31.189334 6.954667 65.962667-142.250667 92.032-202.965333 98.944-131.882667 13.909333-294.997333 12.16-397.354667-22.528-32.981333-10.453333-72.874667-32.981333-71.168-64.256z m237.696-105.813334c4.266667 1.066667 2.005333 3.413333 0 5.546667-1.194667 1.28-2.346667 2.474667-1.706667 3.114667 20.821333 38.186667 128.426667 24.277333 182.186667 12.117333 2.986667-0.938667 5.888-2.218667 8.96-3.498667 7.381333-3.157333 14.848-6.314667 22.272-5.12 15.36 0.938667 25.386667 10.325333 35.072 19.456 7.893333 7.466667 15.573333 14.634667 25.642667 16.981334-76.373333 45.056-258.517333 64.213333-333.141334 6.954666-4.608-38.698667 22.442667-45.653333 50.517334-52.864l10.197333-2.645333z m466.773333-133.546666c3.413333 81.493333-85.034667 128.341333-150.912 131.84 5.333333-5.12 12.373333-10.794667 20.266667-17.152 35.242667-28.416 86.485333-69.845333 75.093333-125.141334-6.912-26.026667-39.850667-43.392-78.08-34.688 48.597333-41.685333 131.925333-26.026667 133.632 45.098667zM334.506667 615.253333c5.376 0.853333 2.944 3.157333-0.213334 6.101334-2.986667 2.773333-6.613333 6.101333-4.992 9.514666 39.978667 39.893333 166.570667 27.733333 229.077334 15.616 4.522667-1.194667 8.96-2.56 13.354666-4.181333 8.533333-2.986667 16.128-5.674667 23.04-4.522667 11.861333 0.938667 21.845333 9.045333 31.658667 17.024 8.832 7.253333 17.493333 14.336 27.306667 15.957334-71.082667 32.981333-209.92 48.597333-312.32 27.733333-25.941333-5.205333-71.082667-19.029333-72.832-39.850667-1.706667-26.069333 45.098667-38.229333 65.92-43.392z m41.386666-106.24l8.96 0.426667c-7.253333 3.072-16.128 5.546667-25.386666 8.192-21.674667 6.101333-45.781333 12.928-57.898667 29.909333 17.365333 13.909333 43.392 13.909333 67.712 13.909334 100.608 5.248 223.744-3.413333 308.778667-19.072 3.456 6.954667-12.16 17.322667-20.821334 22.528-53.76 39.936-220.330667 50.346667-334.848 43.392-38.144-3.456-126.72-12.16-126.72-46.848-1.536-38.826667 93.482667-45.952 141.482667-49.621334l9.514667-0.725333c3.029333 0 6.912-0.426667 11.349333-0.896l8.96-0.938667 8.96-0.256z m336.896-304.981333c-27.733333 19.072-53.76 36.437333-83.328 59.008-22.528 17.322667-62.421333 43.349333-64.170666 74.581333-3.456 50.346667 74.666667 97.152 32.981333 161.365334-15.616 24.277333-41.685333 34.730667-74.581333 50.346666-3.498667-6.954667 8.618667-13.909333 13.866666-20.864 52.053333-74.624-53.802667-98.901333-39.936-190.848 13.909333-91.946667 118.016-121.472 215.168-133.589333zM558.336 42.666667c15.658667 15.616 27.776 45.141333 27.776 74.666666 0 91.904-97.152 143.957333-143.957333 204.672-10.453333 13.909333-24.32 34.688-24.32 57.258667 0 50.304 52.053333 105.856 71.125333 145.749333-31.232-20.821333-71.125333-50.346667-100.608-83.370666-27.733333-34.602667-57.301333-88.405333-31.232-136.96 38.144-71.168 154.368-114.517333 196.010667-190.890667 10.453333-19.072 19.072-48.597333 5.248-71.125333z" fill="currentColor" p-id="40528"></path></svg>
