<svg t="1730780988449" class="icon" viewBox="0 0 1024 1024" version="1.1" xmlns="http://www.w3.org/2000/svg" p-id="8117" width="200" height="200"><path d="M576 320v128h192c0-57.6-12.8-108.8-25.6-153.6-51.2 12.8-108.8 19.2-166.4 25.6zM512 320c-57.6 0-115.2-12.8-166.4-25.6C332.8 339.2 320 390.4 320 448h192V320z m64 320c57.6 0 115.2 12.8 166.4 25.6 12.8-44.8 25.6-96 25.6-153.6H576v128z m-64 0V512H320c0 57.6 12.8 108.8 25.6 153.6 51.2-12.8 108.8-19.2 166.4-25.6z m64-569.6V256c51.2 0 102.4-12.8 147.2-25.6-38.4-83.2-89.6-147.2-147.2-160z m-64 0c-57.6 12.8-108.8 76.8-147.2 160 44.8 12.8 96 19.2 147.2 25.6V70.4z m64 819.2c57.6-19.2 108.8-76.8 147.2-160-44.8-12.8-96-19.2-147.2-25.6v185.6z m-64 0V704c-51.2 0-102.4 12.8-147.2 25.6 38.4 83.2 89.6 147.2 147.2 160zM128 448h128c0-64 12.8-121.6 25.6-179.2-25.6-12.8-44.8-25.6-70.4-38.4C166.4 294.4 134.4 364.8 128 448z m0 64c6.4 83.2 38.4 153.6 83.2 217.6 25.6-12.8 44.8-25.6 76.8-38.4C268.8 633.6 256 576 256 512H128z m832-64c-6.4-83.2-38.4-153.6-83.2-217.6-25.6 12.8-44.8 25.6-76.8 38.4 19.2 57.6 32 115.2 32 179.2h128z m0 64h-128c0 64-12.8 121.6-25.6 179.2l76.8 38.4c38.4-64 70.4-134.4 76.8-217.6zM256 179.2c12.8 12.8 32 19.2 51.2 32 12.8-44.8 32-76.8 57.6-108.8-38.4 19.2-76.8 51.2-108.8 76.8z m576 0c-32-32-70.4-57.6-108.8-76.8 19.2 32 44.8 64 57.6 102.4 19.2-6.4 38.4-12.8 51.2-25.6z m-576 601.6c32 32 70.4 57.6 108.8 76.8-19.2-32-44.8-64-57.6-102.4-19.2 6.4-38.4 12.8-51.2 25.6z m576 0c-19.2-12.8-32-19.2-51.2-25.6-19.2 38.4-38.4 76.8-57.6 102.4 38.4-19.2 76.8-51.2 108.8-76.8zM544 960C281.6 960 64 742.4 64 480S281.6 0 544 0 1024 217.6 1024 480 806.4 960 544 960z" p-id="8118" fill="currentColor"></path></svg>
