<svg t="1736697892241" class="icon" viewBox="0 0 1024 1024" version="1.1" xmlns="http://www.w3.org/2000/svg" p-id="20979" width="200" height="200"><path d="M825.6 961.28h-614.4c-73.4208 0-133.12-59.6992-133.12-133.12v-307.2c0-73.4208 59.6992-133.12 133.12-133.12h614.4c73.4208 0 133.12 59.6992 133.12 133.12v307.2c0 73.4208-59.7504 133.12-133.12 133.12z m-614.4-512c-39.5264 0-71.68 32.1536-71.68 71.68v307.2c0 39.5264 32.1536 71.68 71.68 71.68h614.4c39.5264 0 71.68-32.1536 71.68-71.68v-307.2c0-39.5264-32.1536-71.68-71.68-71.68h-614.4z" fill="currentColor" p-id="20980"></path><path d="M774.4 782.08h-517.12c-16.9472 0-30.72-13.7728-30.72-30.72s13.7728-30.72 30.72-30.72h517.12c16.9472 0 30.72 13.7728 30.72 30.72s-13.7728 30.72-30.72 30.72zM482.56 628.48h-225.28c-16.9472 0-30.72-13.7728-30.72-30.72s13.7728-30.72 30.72-30.72h225.28c16.9472 0 30.72 13.7728 30.72 30.72s-13.7728 30.72-30.72 30.72zM518.4 285.44c-56.4736 0-102.4-45.9264-102.4-102.4s45.9264-102.4 102.4-102.4 102.4 45.9264 102.4 102.4-45.9264 102.4-102.4 102.4z m0-143.36c-22.5792 0-40.96 18.3808-40.96 40.96s18.3808 40.96 40.96 40.96 40.96-18.3808 40.96-40.96-18.3808-40.96-40.96-40.96z" fill="currentColor" p-id="20981"></path><path d="M291.328 440.832a30.72 30.72 0 0 1-21.7088-52.4288l173.312-173.312a30.72 30.72 0 0 1 43.4176 0 30.72 30.72 0 0 1 0 43.4176L313.0368 431.8208a30.464 30.464 0 0 1-21.7088 9.0112zM741.12 440.832c-7.8848 0-15.7184-3.0208-21.7088-9.0112l-173.312-173.312a30.72 30.72 0 0 1 0-43.4176 30.72 30.72 0 0 1 43.4176 0l173.312 173.312a30.72 30.72 0 0 1 0 43.4176 30.464 30.464 0 0 1-21.7088 9.0112z" fill="currentColor" p-id="20982"></path></svg>
