<?xml version="1.0" standalone="no"?>
<!DOCTYPE svg PUBLIC "-//W3C//DTD SVG 1.1//EN" "http://www.w3.org/Graphics/SVG/1.1/DTD/svg11.dtd">
<svg t="1692224308458" class="icon" viewBox="0 0 1024 1024" version="1.1" xmlns="http://www.w3.org/2000/svg" p-id="154945" width="200" height="200">
<defs>
<style type="text/css"></style>
</defs>
<path d="M423.376 732.256c-0.896 0.992-1.536 2.096-2.48 3.04l-133.584 133.92a94.304 94.304 0 0 1-133.584 0 94.88 94.88 0 0 1 0-133.92l133.584-133.92c0.288-0.288 0.656-0.464 0.944-0.784l114.992-114.992c-63.088-16.992-133.216-0.832-182.736 48.8l-133.584 133.92c-73.776 73.968-73.776 193.904 0 267.84 73.776 73.968 193.392 73.968 267.152 0l133.584-133.904c49.456-49.616 65.6-119.84 48.704-183.04l-112.992 113.04zM935.68 86.416c-73.76-73.968-193.376-73.968-267.136 0l-133.584 133.92c-49.328 49.44-65.504 119.392-48.88 182.448l115.536-115.536 0.096 0.096 0.032-0.032 133.6-133.92a94.32 94.32 0 0 1 133.6 0 94.88 94.88 0 0 1 0 133.92l-133.6 133.92c-1.568 1.568-3.376 2.672-4.992 4.096l-111.536 111.52c63.248 17.248 133.664 1.136 183.312-48.656l133.6-133.92c73.728-73.984 73.728-193.904-0.048-267.856zM672 304c-13.888 0-26.32 5.984-35.056 15.424L319.424 636.944A47.68 47.68 0 0 0 304 672a48 48 0 0 0 82.16 33.664l0.144 0.16 320-320-0.16-0.144A48 48 0 0 0 672 304z" p-id="154946"></path>
</svg>