<svg t="1736709232060" class="icon" viewBox="0 0 1024 1024" version="1.1" xmlns="http://www.w3.org/2000/svg" p-id="44071" width="200" height="200"><path d="M547.2 228.8s1.6 0 0 0zM548.8 227.2s0 1.6 1.6 1.6c3.2 1.6 4.8 1.6 6.4 3.2-3.2-1.6-6.4-4.8-8-4.8zM449.6 276.8c4.8 0 0-9.6 9.6-9.6-16 0-16 9.6-9.6 9.6zM436.8 241.6c1.6 0 1.6 1.6 0 0 0-1.6 0-1.6 0 0z" fill="currentColor" p-id="44072"></path><path d="M870.4 808c-14.4-9.6-44.8-19.2-49.6-84.8-14.4 9.6-9.6 73.6 24 84.8 40 9.6 64 35.2-9.6 59.2-44.8 14.4-54.4 19.2-94.4 54.4s-99.2 19.2-89.6-49.6c4.8-40 9.6-68.8 0-99.2-4.8-14.4-9.6-35.2-4.8-49.6 4.8-30.4 19.2-35.2 35.2-9.6 9.6 14.4 14.4 35.2 44.8 35.2 49.6 4.8 59.2-49.6 73.6-49.6s24-30.4 14.4-80c-9.6-54.4-40-139.2-80-179.2-30.4-35.2-49.6-64-64-108.8-9.6-35.2-14.4-68.8-14.4-104 4.8-44.8-19.2-104-59.2-134.4-24-19.2-64-30.4-99.2-30.4-19.2 0-40 4.8-54.4 14.4-59.2 35.2-64 80-64 129.6 4.8 44.8 4.8 104 9.6 153.6-4.8 24-40 68.8-59.2 99.2-30.4 30.4-44.8 84.8-64 134.4-9.6 24-30.4 35.2-30.4 68.8 0 9.6 0 30.4 9.6 24 35.2-30.4 73.6 40 139.2 139.2 14.4 14.4 54.4 99.2-19.2 108.8-24 4.8-64-14.4-104-24-35.2-9.6-68.8-14.4-89.6-19.2-14.4-4.8-19.2-9.6-19.2-14.4-4.8-14.4 14.4-35.2 14.4-49.6s-4.8-24-9.6-35.2c-9.6-14.4-9.6-24-4.8-30.4 0-4.8 9.6-4.8 19.2-4.8 14.4 0 35.2 0 44.8-9.6 14.4-9.6 19.2-30.4 14.4-54.4 0 24-4.8 35.2-24 44.8s-44.8 4.8-59.2 14.4c-14.4 14.4 4.8 49.6 4.8 73.6-4.8 19.2-24 40-14.4 59.2s49.6 19.2 89.6 30.4c64 9.6 99.2 35.2 129.6 35.2 40 0 49.6-44.8 113.6-44.8h121.6c44.8 0 30.4 24 59.2 40 24 14.4 68.8 9.6 80 0 14.4-14.4 49.6-44.8 80-59.2 33.6-19.2 123.2-49.6 59.2-78.4z m-233.6 89.6c-14.4 0-14.4-9.6-9.6-24 4.8-9.6 9.6-30.4 9.6-44.8s0-24-4.8-24-9.6 0-19.2 14.4c-19.2 30.4-54.4 40-89.6 44.8-35.2 0-68.8 0-84.8-19.2-4.8-4.8-14.4 4.8-14.4 4.8-4.8 0 4.8 4.8 9.6 14.4 4.8 14.4 14.4 35.2-4.8 44.8 0-49.6-14.4-49.6-30.4-80 30.4 0 35.2-35.2 19.2-49.6-14.4-14.4-80-64-99.2-84.8-9.6-9.6-19.2-14.4-24-24-9.6-24-19.2-59.2-4.8-84.8v4.8c-9.6 54.4 19.2 94.4 30.4 73.6 4.8-14.4 0-44.8 4.8-64 4.8-40 40-113.6 59.2-118.4-24-40 24-73.6 24-113.6 0-24 19.2 30.4 44.8 44.8 24 9.6 49.6-24 94.4-49.6 9.6-4.8 24-9.6 24-14.4-4.8-19.2-54.4 30.4-94.4 30.4-19.2 0-30.4-4.8-35.2-9.6-24-19.2 0 0 35.2-9.6 14.4 0 19.2-4.8 35.2-9.6s30.4-14.4 49.6-19.2c14.4-4.8 9.6-14.4 4.8-14.4h-9.6c-9.6 14.4-44.8 19.2-54.4 24-14.4 4.8-30.4 9.6-49.6 9.6-30.4 0-19.2-14.4-44.8-30.4-9.6 0-4.8-14.4 4.8-19.2 0-4.8 14.4-9.6 19.2-19.2l14.4-14.4c4.8 0 4.8-40-14.4-40s-19.2 9.6-19.2 24 4.8 24 9.6 24 0 9.6-4.8 9.6-14.4-30.4-14.4-44.8c0-14.4 9.6-44.8 30.4-40 19.2 0 30.4 19.2 30.4 59.2 0 4.8 30.4-4.8 40 4.8 4.8 9.6-24-64 40-59.2 19.2 0 40 9.6 44.8 49.6 0 0 4.8 30.4-4.8 35.2-14.4 4.8-24 0-14.4-14.4 3.2-11.2 1.6-30.4-11.2-40 3.2 3.2 4.8 6.4 1.6 9.6 0 4.8-4.8 4.8-4.8 4.8 0-4.8 0-12.8-3.2-17.6h-1.6c0 3.2-3.2 3.2-1.6 0-3.2 0-4.8-1.6-9.6-1.6-24 0-24 49.6-14.4 49.6 4.8 0 24 9.6 40 14.4 40 9.6 9.6 35.2 14.4 64 4.8 35.2 30.4 24 49.6 113.6 4.8 4.8 24 9.6 40 80 14.4 59.2-4.8 108.8 35.2 104 9.6 0 19.2 0 24-19.2 14.4-44.8-4.8-99.2-24-139.2-14.4-19.2-24-35.2-30.4-40 24 14.4 54.4 59.2 59.2 89.6 4.8 40 14.4 59.2 0 104 4.8 0 24 9.6 24 19.2-20.8-16-84.8-20.8-84.8 19.2-9.6 0-19.2 0-24 9.6-24 30.4 0 84.8 4.8 113.6-4.8 30.4-11.2 54.4-16 84.8z m-198.4-659.2s4.8 4.8 4.8 19.2c-4.8 0-4.8-4.8-4.8-9.6 0-1.6-1.6-4.8-1.6-4.8-3.2-1.6-1.6-4.8 1.6-4.8z" fill="currentColor" p-id="44073"></path><path d="M488 272c9.6 0 9.6 4.8 14.4 4.8 6.4-4.8 1.6-14.4-14.4-4.8z" fill="currentColor" p-id="44074"></path></svg>
