<svg class="icon" viewBox="0 0 1024 1024" version="1.1" xmlns="http://www.w3.org/2000/svg" p-id="21914" width="200" height="200"><path d="M128 213.333h768q17.664 0 30.165 12.502T938.667 256t-12.502 30.165T896 298.667H128q-17.664 0-30.165-12.502T85.333 256t12.502-30.165T128 213.333z m0 512h768q17.664 0 30.165 12.502T938.667 768t-12.502 30.165T896 810.667H128q-17.664 0-30.165-12.502T85.333 768t12.502-30.165T128 725.333z m0-256h768q17.664 0 30.165 12.502T938.667 512t-12.502 30.165T896 554.667H128q-17.664 0-30.165-12.502T85.333 512t12.502-30.165T128 469.333z" p-id="21915"></path></svg>