<svg t="1736631112748" class="icon" viewBox="0 0 1024 1024" version="1.1" xmlns="http://www.w3.org/2000/svg" p-id="141435" width="200" height="200"><path d="M671.270447 719.243041c1.534959 3.049452 4.461615 4.584412 8.831132 4.584412 7.889691 0 11.849886-7.019881 11.849886-21.049409l0-101.184517 69.74855 0 0 101.184517c0 7.633864 0.747014 13.057387 2.302439 16.270569 1.534959 3.182482 4.584412 4.77884 9.199523 4.77884 7.644097 0 11.471262-7.019881 11.471262-21.049409l0-101.184517 70.127174 0 0 115.715465c0 20.947078-7.040347 38.721907-21.080108 53.283554-14.060227 14.530948-31.149441 21.827121-51.349505 21.827121-20.926612 0-39.448454-8.667404-55.534827-26.063609-17.641799 17.396205-36.010145 26.063609-55.186903 26.063609-22.482037 0-40.226167-7.296173-53.252855-21.827121-13.036921-14.561647-19.524682-35.017538-19.524682-61.32674l0-107.672278 70.096475 0 0 101.184517C668.968008 710.698434 669.74572 716.183356 671.270447 719.243041z" fill="currentColor" p-id="141436"></path><path d="M475.112881 597.387739c26.820855 0 49.487088 9.138124 68.00893 27.40414 18.521842 18.276249 27.782763 40.942481 27.782763 68.00893 0 1.023306-0.276293 5.362124-0.777713 13.026688l-106.137319 0c-1.780553-5.106298-2.681062-10.222829-2.681062-15.33936 0-5.607718 1.146103-11.471262 3.458775-17.6111l35.641755 0c-2.312672-14.029528-10.110265-21.080108-23.39278-21.080108-8.411577 0-15.462157 3.704368-21.069875 11.133571-5.617951 7.388271-8.42181 16.956184-8.42181 28.713972 0 12.003382 2.681062 21.919219 8.043187 29.686113 5.362124 7.797593 12.248975 11.686157 20.670785 11.686157 7.173376 0 13.93743-3.550873 20.333094-10.724249l39.847543 48.300053c-18.399045 14.530948-39.10053 21.827121-62.083987 21.827121-27.342742 0-50.510394-9.383718-69.533656-28.151154-19.043728-18.777669-28.560476-41.97602-28.560476-69.564355 0-27.322275 9.455349-50.356898 28.376281-69.165266C423.517783 606.771457 446.992427 597.387739 475.112881 597.387739z" fill="currentColor" p-id="141437"></path><path d="M510.23275 532.765953c-17.641799 0-31.927153-14.275121-31.927153-31.927153 0-17.641799 14.285355-31.927153 31.927153-31.927153 17.652032 0 31.937386 11.225669 31.937386 28.877701C542.170137 515.431146 527.884782 532.765953 510.23275 532.765953z" fill="currentColor" p-id="141438"></path><path d="M345.623715 689.342034l0 98.871845-69.74855 0 0-105.768929c0-10.724249-4.461615-16.086373-13.405311-16.086373-8.698103 0-13.036921 5.362124-13.036921 16.086373l0 105.768929-70.096475 0 0-104.244202c0-24.252357 8.043187-44.738947 24.139793-61.480236 16.086373-16.720823 35.733852-25.101701 58.993602-25.101701 25.53149 0 45.772486 8.104585 60.733223 24.354688C338.143347 637.951597 345.623715 660.495032 345.623715 689.342034z" fill="currentColor" p-id="141439"></path><path d="M499.968989 357.166609l17.97949 0c24.12956-87.308485 38.46608-173.542498 31.753191-194.643072-20.138666-17.5804-62.083987-17.007349-80.759325 1.688455C450.256774 182.88733 469.361901 276.980335 499.968989 357.166609zM127.117143 794.261619c0 23.730471 21.479197 39.847543 39.499619 49.200562 30.494525 15.84078 73.933873 24.569582 122.223692 24.569582l442.764126-0.030699c92.261287 0 161.733545-31.712259 161.764244-73.739445l-0.030699-299.470559c0-42.068118-69.533656-73.780377-161.733545-73.780377l-442.764126 0.020466c-48.28982 0-91.729168 8.728802-122.254392 24.569582-18.020422 9.353019-39.509852 25.490557-39.509852 49.190329L127.117143 794.261619zM957.202665 494.79106l0.030699 299.470559c-0.030699 82.314751-90.675162 137.593751-225.495754 137.593751l-442.897156 0.030699c-58.369386-0.030699-112.215758-11.287067-151.653979-31.742958-47.706535-24.753777-73.964572-62.36028-73.933873-105.881492l-0.030699-299.470559c0-82.324984 90.644463-137.624451 225.557152-137.624451l143.058207 0c-25.429159-71.754231-56.527434-189.618639-8.043187-238.102886 44.401256-44.431955 128.46586-44.431955 172.867116 0 27.301809 27.312042 22.89136 107.692744-12.422937 238.102886l147.366326-0.010233C866.527502 357.156376 957.202665 412.466076 957.202665 494.79106z" fill="currentColor" p-id="141440"></path></svg>
