<svg t="1736630681462" class="icon" viewBox="0 0 1024 1024" version="1.1" xmlns="http://www.w3.org/2000/svg" p-id="135659" width="200" height="200"><path d="M57.6 873.6c0 32 25.6 57.6 57.6 57.6h512c32 0 57.6-25.6 57.6-57.6V307.2c0-22.4-12.8-51.2-28.8-67.2l-131.2-128c-16-16-44.8-28.8-67.2-28.8H115.2c-32 0-57.6 25.6-57.6 57.6v732.8zM585.6 249.6H512V179.2l73.6 70.4zM115.2 137.6h342.4v112c0 32 25.6 57.6 57.6 57.6h115.2v566.4h-512v-736zM908.8 80h-57.6c-32 0-57.6 25.6-57.6 57.6v649.6c0 19.2 6.4 48 16 67.2l32 64c9.6 16 22.4 25.6 38.4 25.6s28.8-9.6 38.4-25.6l32-64c9.6-19.2 16-44.8 16-67.2V137.6c0-32-25.6-57.6-57.6-57.6z m0 57.6V224h-57.6V137.6h57.6z m-9.6 691.2l-19.2 38.4-16-38.4c-6.4-9.6-9.6-28.8-9.6-41.6V278.4h57.6v508.8c-3.2 12.8-6.4 32-12.8 41.6z" fill="currentColor" p-id="135660"></path><path d="M198.4 278.4h156.8c16 0 28.8-12.8 28.8-28.8 0-12.8-12.8-25.6-28.8-25.6H198.4c-16 0-28.8 12.8-28.8 25.6 0 16 12.8 28.8 28.8 28.8zM540.8 364.8H198.4c-16 0-28.8 12.8-28.8 28.8s12.8 28.8 28.8 28.8h342.4c16 0 28.8-12.8 28.8-28.8s-12.8-28.8-28.8-28.8zM540.8 476.8H198.4c-16 0-28.8 12.8-28.8 28.8s12.8 28.8 28.8 28.8h342.4c16 0 28.8-12.8 28.8-28.8s-12.8-28.8-28.8-28.8zM540.8 588.8H198.4c-16 0-28.8 12.8-28.8 28.8s12.8 28.8 28.8 28.8h342.4c16 0 28.8-12.8 28.8-28.8s-12.8-28.8-28.8-28.8zM540.8 704H198.4c-16 0-28.8 12.8-28.8 28.8s12.8 28.8 28.8 28.8h342.4c16 0 28.8-12.8 28.8-28.8s-12.8-28.8-28.8-28.8z" fill="currentColor" p-id="135661"></path></svg>
