<?xml version="1.0" standalone="no"?>
<!DOCTYPE svg PUBLIC "-//W3C//DTD SVG 1.1//EN" "http://www.w3.org/Graphics/SVG/1.1/DTD/svg11.dtd">
<svg t="1692218264355" class="icon" viewBox="0 0 1024 1024" version="1.1" xmlns="http://www.w3.org/2000/svg" p-id="51543" width="200" height="200">
<defs>
<style type="text/css"></style>
</defs>
<path d="M218.688 273.44l273.664-167.328a68.576 68.576 0 0 1 93.344 21.024c6.72 10.528 10.304 22.72 10.304 35.136v699.52A66.016 66.016 0 0 1 576 908.704a67.872 67.872 0 0 1-47.808 19.264c-12.704 0-25.12-3.52-35.872-10.08l-273.664-167.328H94.88a95.2 95.2 0 0 1-66.944-27.04A92.576 92.576 0 0 1 0 657.696v-291.424c0-51.2 42.464-92.832 94.816-92.832h123.872z m33.056 72.864c-6.496 4-13.952 6.112-21.6 6.112H94.496a13.568 13.568 0 0 0-9.536 3.84 13.216 13.216 0 0 0-4 9.376v291.52c0 7.36 6.08 13.312 13.536 13.312h135.712c7.648 0 15.136 2.08 21.632 6.048l263.36 160.8V185.504l-263.456 160.896v-0.096z m597.376 564.576a41.216 41.216 0 0 1-57.28-0.96 39.2 39.2 0 0 1 0.896-56.192c200.096-189.216 200.096-495.424 0-684.64a39.168 39.168 0 0 1-0.992-56.16 41.216 41.216 0 0 1 57.376-0.992c233.184 220.48 233.184 578.464 0 798.944z m-115.936-158.528a41.28 41.28 0 0 1-57.504-1.504 39.264 39.264 0 0 1 1.568-56.256c109.536-101.44 109.536-264.928 0-366.4a39.2 39.2 0 0 1-1.536-56.224 41.184 41.184 0 0 1 57.472-1.504c143.296 132.832 143.296 349.12 0 481.92z" p-id="51544"></path>
</svg>