<?xml version="1.0" standalone="no"?>
<!DOCTYPE svg PUBLIC "-//W3C//DTD SVG 1.1//EN" "http://www.w3.org/Graphics/SVG/1.1/DTD/svg11.dtd">
<svg t="1692217561806" class="icon" viewBox="0 0 1024 1024" version="1.1" xmlns="http://www.w3.org/2000/svg" p-id="33797" width="200" height="200">
<defs>
<style type="text/css"></style>
</defs>
<path d="M248.32 373.76h368.64c17.92 0 33.28-10.24 33.28-28.16v-17.92c0-12.8-15.36-28.16-33.28-28.16H248.32c-17.92 0-33.28 10.24-33.28 28.16v17.92c0 17.92 15.36 28.16 33.28 28.16z m0 151.04h368.64c17.92 0 33.28-10.24 33.28-28.16v-17.92c0-12.8-15.36-25.6-33.28-25.6H248.32c-17.92 0-33.28 10.24-33.28 25.6v17.92c0 17.92 15.36 28.16 33.28 28.16z m307.2-394.24c38.4 0 71.68-25.6 71.68-56.32v-17.92C627.2 25.6 593.92 0 555.52 0h-245.76c-38.4 0-71.68 25.6-71.68 56.32v17.92c0 30.72 33.28 56.32 71.68 56.32h245.76zM755.2 23.04h-43.52v87.04h64V460.8h87.04V133.12c2.56-64-46.08-110.08-107.52-110.08zM87.04 908.8V110.08h64V23.04H107.52C46.08 23.04 0 71.68 0 130.56v755.2c0 61.44 48.64 107.52 107.52 107.52h650.24l-74.24-87.04H87.04z m161.28-232.96c-17.92 0-33.28-10.24-33.28-28.16v-17.92c0-17.92 15.36-28.16 33.28-28.16h281.6c17.92 0 33.28 12.8 33.28 28.16v17.92c0 17.92-15.36 28.16-33.28 28.16h-281.6zM844.8 545.28c5.12 2.56 10.24 7.68 10.24 12.8V896c0 5.12-2.56 12.8-10.24 12.8-2.56 2.56-2.56 2.56-5.12 2.56s-7.68-2.56-10.24-2.56c-2.56 0-23.04-17.92-43.52-33.28-38.4-28.16-51.2-33.28-53.76-35.84h-81.92c-7.68 0-12.8-5.12-12.8-12.8v-194.56c0-7.68 5.12-12.8 12.8-12.8h74.24c2.56-2.56 15.36-7.68 58.88-38.4 23.04-17.92 48.64-35.84 48.64-35.84 2.56-2.56 7.68-2.56 12.8 0z m102.4 181.76c0 38.4-23.04 71.68-53.76 89.6 0 0-2.56 2.56-7.68 2.56-7.68 0-12.8-5.12-12.8-12.8 0-2.56 2.56-7.68 5.12-10.24 25.6-12.8 43.52-38.4 43.52-69.12s-15.36-53.76-43.52-69.12c-2.56-2.56-5.12-5.12-5.12-10.24 0-7.68 5.12-12.8 12.8-12.8 2.56 0 5.12 2.56 7.68 2.56 30.72 20.48 53.76 51.2 53.76 89.6z m-15.36-151.04c53.76 28.16 89.6 84.48 92.16 151.04 0 64-35.84 120.32-92.16 148.48-2.56 0-2.56 2.56-7.68 2.56-7.68 0-12.8-5.12-12.8-12.8 0-5.12 2.56-10.24 7.68-12.8 48.64-25.6 79.36-74.24 79.36-130.56 0-53.76-30.72-104.96-79.36-130.56-2.56-2.56-7.68-5.12-7.68-10.24 0-7.68 5.12-12.8 12.8-12.8 2.56 7.68 5.12 7.68 7.68 7.68z" p-id="33798"></path>
</svg>