<svg t="1736706668757" class="icon" viewBox="0 0 1303 1024" version="1.1" xmlns="http://www.w3.org/2000/svg" p-id="5810" width="200" height="200"><path d="M1101.265455 1024H202.007273C91.229091 1024 0 933.236364 0 823.109818V200.890182C0 90.763636 91.229091 0 202.007273 0h899.258182C1212.043636 0 1303.272727 90.763636 1303.272727 200.890182v622.219636C1303.272727 933.236364 1212.043636 1024 1101.265455 1024zM202.007273 103.703273c-52.130909 0-97.745455 45.335273-97.745455 97.186909v622.219636c0 51.851636 45.614545 97.186909 97.745455 97.186909h899.258182c52.130909 0 97.745455-45.335273 97.745454-97.186909V200.890182c0-51.851636-45.614545-97.186909-97.745454-97.186909H202.007273z m319.301818 693.527272c-156.392727 0-286.72-129.675636-286.72-285.230545 0-155.461818 130.327273-285.137455 286.72-285.137455 156.392727 0 286.72 129.582545 286.72 285.137455 6.516364 155.461818-123.810909 285.137455-286.72 285.137455z m0-473.18109c-104.261818 0-188.974545 84.247273-188.974546 187.950545s84.712727 187.950545 188.974546 187.950545c104.261818 0 188.974545-84.247273 188.974545-187.950545S625.570909 324.049455 521.309091 324.049455z m540.858182-32.395637h-104.261818c-19.549091 0-39.098182-19.456-39.098182-38.912v-12.939636c0-19.456 19.549091-38.912 39.098182-38.912h104.261818c19.549091 0 39.098182 19.549091 39.098182 38.912v13.032727c0 19.362909-19.549091 38.818909-39.098182 38.818909z" fill="currentColor" p-id="5811"></path></svg>
