<svg t="1736707402582" class="icon" viewBox="0 0 1024 1024" version="1.1" xmlns="http://www.w3.org/2000/svg" p-id="20150" width="200" height="200"><path d="M914.9 935.8H109.3C49.1 935.8 0 886.8 0 826.5v-629c0-60.2 49-109.3 109.3-109.3h805.7c60.2 0 109.3 49 109.3 109.3v629c-0.1 60.3-49.1 109.3-109.4 109.3zM109.3 168.4c-16 0-29.1 13.1-29.1 29.1v629c0 16 13.1 29.1 29.1 29.1h805.7c16 0 29.1-13.1 29.1-29.1v-629c0-16-13.1-29.1-29.1-29.1H109.3z" fill="currentColor" p-id="20151"></path><path d="M523 732.6c-8 0-16-2.4-23-7.3L290.5 588.8 68.4 733.9c-18.5 12.1-43.4 6.9-55.5-11.6-12.1-18.5-6.9-43.4 11.6-55.5l244.8-160c13.7-9 31.5-8.7 44.9 0.7L546.1 659.7c18.1 12.7 22.5 37.7 9.8 55.8-7.9 11.1-20.3 17.1-32.9 17.1z" fill="currentColor" p-id="20152"></path><path d="M448.3 660.2c-12.6 0-25-5.9-32.8-17-12.8-18.1-8.4-43.1 9.6-55.9l257.3-174.5c12.7-9 29.4-9.8 42.9-2.1l267.1 151.9c19.2 10.9 26 35.4 15 54.7-10.9 19.2-35.4 26-54.7 15L707.8 493 471.3 652.8c-7 5-15 7.4-23 7.4z" fill="currentColor" p-id="20153"></path><path d="M337.2 343.5m-76.3 0a76.3 76.3 0 1 0 152.6 0 76.3 76.3 0 1 0-152.6 0Z" fill="currentColor" p-id="20154"></path></svg>
