<svg t="1736631647797" class="icon" viewBox="0 0 1024 1024" version="1.1" xmlns="http://www.w3.org/2000/svg" p-id="155273" width="200" height="200"><path d="M64 447.912517c0 184.963874 111.978129 343.532904 271.946885 411.919547-0.199961-0.599883-0.199961-1.199766-0.399922-1.999609-6.198789-38.392501-11.997657-79.584456-14.397188-114.1777C224.168717 681.066979 159.981254 572.088264 159.981254 447.912517c0-194.362039 157.569225-351.931263 351.931263-351.931263s351.931263 157.569225 351.931264 351.931263c0 124.175747-64.187463 233.154462-161.168522 295.942199-2.399531 34.393283-7.998438 75.785198-14.397188 113.977739-0.199961 0.799844-0.199961 1.399727-0.399922 2.19957 159.968756-68.386643 271.946885-227.155634 271.946885-412.119508C959.825034 200.560828 759.264206 0 511.912517 0S64 200.560828 64 447.912517z m159.968756 0c0 87.982816 39.592267 166.967389 101.780121 219.757079 3.199375-11.397774 7.798477-22.195665 13.997266-32.393673 11.597735-19.396212 26.994728-33.993361 43.791447-44.791252-38.992384-35.193126-63.587581-85.983206-63.58758-142.572154 0-105.979301 85.983206-191.962507 191.962507-191.962507s191.962507 85.983206 191.962507 191.962507c0 56.588947-24.595196 107.578988-63.58758 142.572154 16.796719 10.797891 32.193712 25.39504 43.791447 44.791252 6.198789 10.198008 10.797891 20.995899 13.997266 32.393673C760.264011 614.879906 799.856278 535.895333 799.856278 447.912517c0-158.968951-128.97481-287.943761-287.943761-287.943761S223.968756 288.943566 223.968756 447.912517z" fill="currentColor" p-id="155274"></path><path d="M511.912517 335.934388a111.978129 111.978129 0 1 1 0 223.956258 111.978129 111.978129 0 1 1 0-223.956258z m-127.975005 375.526655c0-70.186292 62.187854-87.582894 127.975005-87.582894s127.975005 17.196641 127.975005 87.582894c0 65.987112-25.794962 208.159344-41.191955 265.748096-10.198008 37.99258-48.990432 46.790861-86.78305 46.790861s-76.385081-8.798282-86.78305-46.790861C409.532513 920.220269 383.937512 777.848077 383.937512 711.661004z" fill="currentColor" p-id="155275"></path></svg>
