<svg t="1736629085779" class="icon" viewBox="0 0 1024 1024" version="1.1" xmlns="http://www.w3.org/2000/svg" p-id="56079" width="200" height="200"><path d="M563.032 13.52l0.968 0.552 353.218 203.93c31.856 18.393 51.603 52.227 52 88.953v408.976a104 104 0 0 1-51.038 89.504l-0.962 0.562L564 1009.928a104 104 0 0 1-103.032 0.552l-0.968-0.552-353.218-203.93c-31.856-18.393-51.603-52.227-52-88.953v-1.273L55 671.84c0.088-17.673 14.486-31.928 32.16-31.84 17.495 0.086 31.642 14.199 31.838 31.629l0.002 0.53L118.78 716l0.004 0.422a40 40 0 0 0 19.572 33.9l0.425 0.249L480 947.574V753.897a80.083 80.083 0 0 1-7.254-3.615l-0.744-0.424-146-84.289a80 80 0 0 1-39.997-68.426l-0.005-0.857V427.714c0-2.955 0.163-5.886 0.482-8.782L118.8 322.266 119 479.96c0.022 17.673-14.286 32.019-31.96 32.041-17.496 0.022-31.73-14.001-32.035-31.43l-0.005-0.53-0.218-171.97a104 104 0 0 1 51.038-89.505l0.962-0.562L460 14.072a104 104 0 0 1 103.032-0.552z m342.186 308.737l-167.7 96.675c0.28 2.534 0.439 5.095 0.474 7.675l0.008 1.107v168.572a80 80 0 0 1-39.262 68.851l-0.74 0.432-146 84.29a80.004 80.004 0 0 1-7.998 4.038v193.677l341.218-197.002a40.01 40.01 0 0 0 20-34.149V322.257zM350 455.547v140.74a16 16 0 0 0 7.687 13.67l0.313 0.186 122 70.432V530.488l-130-74.94z m324 0l-130 74.941v150.087l122-70.432a16 16 0 0 0 7.996-13.492l0.004-0.365V455.547zM520 329.568a16 16 0 0 0-15.668-0.186l-0.332 0.186-122.105 70.493L512 475.063l130.105-75.002L520 329.568zM492.465 69.233l-0.465 0.264-341.507 197.168 167.873 96.774a80.08 80.08 0 0 1 6.896-4.576l0.74-0.432 146-84.29a80 80 0 0 1 79.252-0.423l0.744 0.424 146 84.289a80.1 80.1 0 0 1 7.636 5.008l167.872-96.774L532 69.497a40 40 0 0 0-39.535-0.264z" fill="currentColor" p-id="56080"></path></svg>
