<!-- <svg t="1734107867729" class="icon" viewBox="0 0 1024 1024" version="1.1" xmlns="http://www.w3.org/2000/svg" p-id="30541" width="200" height="200"><path d="M377.971959 400.343991c0 29.05678-18.715247 53.203736-44.6315 62.431911l0 272.545326-44.673455 0L288.667004 462.775902c-25.916253-9.228175-44.763506-33.375132-44.763506-62.431911 0-29.143761 18.847254-53.29174 44.763506-62.519915l0-93.932346 44.673455 0 0 93.932346C359.256712 347.052251 377.971959 371.20023 377.971959 400.343991zM511.955486 427.1321 511.955486 243.892753l-44.675502 0 0 183.239348c-25.914206 9.335622-44.6315 33.463136-44.6315 62.519915s18.717294 53.226249 44.6315 62.540382l0 183.129854 44.675502 0L511.955486 552.191374c25.914206-9.314133 44.76146-33.483602 44.76146-62.540382S537.869692 436.467723 511.955486 427.1321zM958.70846 243.892753l0 536.193005c0 98.642624-79.971379 178.63447-178.700985 178.63447L243.903497 958.720228c-98.642624 0-178.61298-79.991846-178.61298-178.63447L65.290517 243.892753c0-98.642624 79.969333-178.61298 178.61298-178.61298l536.105001 0C878.73708 65.279772 958.70846 145.249105 958.70846 243.892753zM869.44546 288.656259c0-74.101695-60.119239-134.069485-134.113487-134.069485L288.667004 154.586774c-74.082252 0-134.071532 59.96779-134.071532 134.069485l0 446.665992c0 74.126254 59.989279 134.090974 134.071532 134.090974l446.664969 0c73.994248 0 134.113487-59.965743 134.113487-134.090974L869.44546 288.656259zM735.331973 516.461615 735.331973 243.892753l-44.675502 0 0 272.568862c-25.872251 9.314133-44.6315 33.462113-44.6315 62.517869 0 29.166273 18.759249 53.29174 44.6315 62.541405l0 93.800339 44.675502 0 0-93.800339c25.914206-9.249665 44.675502-33.375132 44.675502-62.541405C780.007475 549.923728 761.246179 525.775748 735.331973 516.461615z" fill="#0badb6" p-id="30542"></path></svg> -->
<svg t="1734108005766" class="icon" viewBox="0 0 1024 1024" version="1.1" xmlns="http://www.w3.org/2000/svg" p-id="31886" width="200" height="200"><path d="M598.5 138c21 5 41 11.5 60.5 19.5s38.5 18 56.5 29l13.5 8.5-8 13.5-25.5 41.5c15 10.5 29.5 22.5 42.5 35.5s25.5 27.5 36 42.5l42-25 13.5-8 8.5 13c11.5 18 21 37 29.5 56.5 8 19.5 14.5 39.5 19.5 60.5l3.5 15.5-15.5 4-47.5 11.5c1 6.5 2 13.5 3 20 1.5 12 2 24 2 36s-0.5 23.5-2 35.5c-0.5 6.5-1.5 13-3 19.5l47.5 12 15 4-3.5 15.5c-5 21-11.5 41-19.5 60.5-8 20-18 39-29 56.5l-8.5 13.5-13.5-8-41.5-25.5c-10.5 15-22.5 29.5-35.5 42.5s-27.5 25.5-42.5 36l25 42 8 13.5-13 8.5c-18 11.5-37 21-56.5 29.5-19.5 8-39.5 14.5-60.5 19.5l-15.5 3.5-4-15.5-11.5-47.5c-6.5 1-13.5 2-20 3-12 1.5-24 2-36 2s-23.5-0.5-35.5-2c-6.5-0.5-13-1.5-19.5-3l-12 47.5-4 15-15.5-3.5c-21-5-41.5-11.5-61-19.5-20-8-39-18-57-29.5l-13-8.5 8-13.5 25-42c-15-10.5-29.5-22.5-42.5-36-13-13-25-27.5-35.5-42.5l-41.5 25.5-13.5 8-8.5-13.5c-11-18-21-37-29-56.5s-14.5-40-19.5-60.5l-3.5-15.5 15-4 47.5-12-3-19.5c-1.5-12-2-23.5-2-35.5s0.5-24 2-36c1-6.5 1.5-13.5 3-20l-47.5-11.5-15.5-4 3.5-15.5c5-21 11.5-41 19.5-60.5s18-38.5 29.5-56.5l8.5-13 13.5 8 42 25c10.5-15 22.5-29.5 36-42.5 13-13 27.5-25 42.5-35.5l-25.5-41.5-8-13.5 13.5-8.5c18-11 37-21 56.5-29s40-14.5 60.5-19.5l15.5-3.5 4 15 12 47.5 19.5-3c12-1.5 23.5-2 35.5-2s24 0.5 36 2c6.5 1 13.5 1.5 20 3l11.5-47.5 4-15.5 15.5 3.5-1 1z" fill="#0badb6" p-id="31887"></path><path d="M512 292c60.5 0 115.5 24.5 155.5 64.5s64.5 94.5 64.5 155.5c0 60.5-24.5 115.5-64.5 155.5s-94.5 64.5-155.5 64.5c-60.5 0-115.5-24.5-155.5-64.5s-64.5-94.5-64.5-155.5c0-60.5 24.5-115.5 64.5-155.5s94.5-64.5 155.5-64.5z" fill="#05695c" p-id="31888"></path><path d="M512 416c26.5 0 50.5 10.5 68 28s28 41.5 28 68-10.5 50.5-28 68-41.5 28-68 28-50.5-10.5-68-28-28-41.5-28-68 10.5-50.5 28-68 41.5-28 68-28z" fill="#008688" p-id="31889"></path><path d="M512 432c22 0 42 9 56.5 23.5s23.5 34.5 23.5 56.5-9 42-23.5 56.5-34.5 23.5-56.5 23.5-42-9-56.5-23.5-23.5-34.5-23.5-56.5 9-42 23.5-56.5 34.5-23.5 56.5-23.5z" fill="#0badb6" p-id="31890"></path></svg>