<svg t="1736695048879" class="icon" viewBox="0 0 1024 1024" version="1.1" xmlns="http://www.w3.org/2000/svg" p-id="16421" width="200" height="200"><path d="M955.12221 307.056042c0-0.126962 0-0.189419 0.063481-0.253924 0.508871-0.893852 0.889756-1.783608 1.211257-2.737869 0.251876-0.509895 0.44539-0.957333 0.63788-1.335147 0.2529-0.767914 0.2529-1.403747 0.44539-2.10306 0.189419-0.825252 0.381909-1.524565 0.447438-2.231046 0.063481-0.442318 0-0.825252 0-1.211257 0.063481-1.14368 0.125938-2.160398 0-3.244692-0.065529-0.508871-0.193514-1.01979-0.319452-1.531733-0.126962-0.888732-0.251876-1.849137-0.509895-2.798278-0.125938-0.446414-0.382933-0.830371-0.509895-1.278833a22.322748 22.322748 0 0 0-1.144704-2.921145c0-0.067576-0.062457-0.134129-0.062457-0.195562a15.420737 15.420737 0 0 0-0.825251-1.271665c-0.509895-0.760747-0.957333-1.594189-1.531733-2.294527-0.508871-0.634809-1.084295-1.207161-1.587022-1.71808-0.509895-0.510919-0.956309-1.016718-1.468252-1.463132a17.166461 17.166461 0 0 0-2.480874-1.719104c-0.382933-0.189419-0.636857-0.509895-1.016718-0.698289l-0.381909-0.193515s-0.067576 0-0.131057-0.064505L675.598445 123.871694c-0.125938-0.065529-0.253924-0.130033-0.446414-0.258019-0.69829-0.317404-1.33617-0.5744-2.036508-0.889756a23.396804 23.396804 0 0 0-2.231046-0.892828c-0.442318-0.126962-0.888732-0.190443-1.334123-0.253924a16.695474 16.695474 0 0 0-2.994864-0.636856h-1.016718c-1.146752-0.063481-2.224903-0.063481-3.372679 0.064504-0.44539 0.063481-0.893852 0.187371-1.277808 0.253924-1.015694 0.12389-1.973027 0.318428-3.055274 0.634809-0.511943 0.195562-0.955285 0.382933-1.399652 0.5744-0.957333 0.382933-1.785656 0.69829-2.738893 1.211256l-0.380885 0.193514-141.036108 78.886269-141.418017-79.080807c-0.887709-0.509895-1.847089-0.760747-2.734798-1.146752-0.446414-0.187371-0.892828-0.378838-1.402723-0.573375a19.166109 19.166109 0 0 0-3.182235-0.637881c-0.319452-0.063481-0.697266-0.187371-1.084295-0.251876a22.764042 22.764042 0 0 0-3.564145-0.063481h-0.761771c-1.144704 0.125938-2.230022 0.314333-3.313292 0.636857-0.383957 0.126962-0.69829 0.126962-1.020814 0.190443-0.884637 0.319452-1.650503 0.69829-2.543331 1.085318-0.5744 0.125938-1.211256 0.381909-1.784632 0.697266-0.12389 0.064505-0.314333 0.127986-0.509895 0.259043L78.157262 275.986242c-0.442318 0.253924-0.760747 0.5744-1.078151 0.825251a15.336778 15.336778 0 0 0-2.488041 1.658694l-1.525589 1.521494c-0.508871 0.5744-1.084295 1.085318-1.531733 1.658694-0.636857 0.697266-1.084295 1.595213-1.592141 2.356984-0.258019 0.446414-0.5744 0.760747-0.766891 1.145728-0.064505 0.062457-0.064505 0.187371-0.064504 0.259043-0.510919 0.888732-0.825252 1.846065-1.145728 2.733774-0.188395 0.511943-0.44539 0.956309-0.573376 1.469275-0.251876 0.697266-0.315357 1.461084-0.446414 2.285312-0.124914 0.706481-0.315357 1.34129-0.380885 2.041627v1.784633c0 0.887709-0.063481 1.719103 0 2.605788 0.064505 0.5744 0.251876 1.211256 0.380885 1.784632 0.133105 0.893852 0.259043 1.719103 0.510919 2.550498 0.258019 0.504775 0.446414 0.888732 0.636857 1.399651 0.383957 0.956309 0.76689 1.91057 1.211256 2.73787 0 0.064505 0.066553 0.125938 0.066553 0.253923 0.125938 0.125938 0.315357 0.253924 0.380885 0.508871a23.692706 23.692706 0 0 0 2.866879 3.754588c0.382933 0.382933 0.760747 0.761771 1.207161 1.145728 0.956309 0.893852 2.036508 1.658694 3.182235 2.480874 0.382933 0.259043 0.76689 0.5744 1.211257 0.830371 0.194538 0.125938 0.319452 0.125938 0.382933 0.187371l121.425632 64.244708-105.505239 50.939319c-0.382933 0.125938-0.760747 0.44539-1.145728 0.636857-0.760747 0.44539-1.467228 0.825252-2.103061 1.335146-0.636857 0.382933-1.145728 0.894876-1.713984 1.403747-0.5744 0.504775-1.145728 0.954261-1.595213 1.522517-0.5744 0.637881-1.084295 1.33617-1.596237 1.911594-0.315357 0.381909-0.635833 0.703409-0.888733 1.084295-0.130033 0.063481-0.194538 0.319452-0.319452 0.509895-0.382933 0.697266-0.761771 1.469275-1.145728 2.105108-0.315357 0.697266-0.636857 1.334123-0.888732 1.91057-0.259043 0.69829-0.382933 1.33617-0.636857 2.038556-0.130033 0.892828-0.320476 1.530709-0.44539 2.294527-0.125938 0.760747-0.125938 1.399651-0.191466 2.041627-0.066553 0.825252-0.130033 1.585998-0.130034 2.223879 0 0.830371 0.130033 1.46518 0.259043 2.166541 0.064505 0.761771 0.188395 1.595213 0.315357 2.294527 0.130033 0.636857 0.320476 1.207161 0.5744 1.911594 0.258019 0.825252 0.510919 1.594189 0.894875 2.354937 0.063481 0.253924 0.124914 0.383957 0.188395 0.63788 0.125938 0.187371 0.320476 0.382933 0.44539 0.636857 0.825252 1.400675 1.656646 2.865855 2.803398 4.139568 0.2529 0.251876 0.442318 0.634809 0.762795 0.892828 1.207161 1.272689 2.480874 2.35596 3.941958 3.432064l136.515655 90.672212c-0.380885 1.596237-0.637881 3.314317-0.637881 5.028301v134.865151c0 0.380885 0.126962 0.761771 0.126962 1.14368 0.065529 1.144704 0.12901 2.230022 0.319452 3.248788 0.12389 0.760747 0.382933 1.334123 0.636857 2.095894 0.190443 0.767914 0.382933 1.340266 0.63788 2.105108 0.259043 0.760747 0.636857 1.334123 0.954261 1.973027 0.314333 0.636857 0.637881 1.34129 1.085319 1.97917 0.378838 0.636857 0.885661 1.14368 1.334122 1.719104 0.509895 0.505799 0.889756 1.142656 1.400676 1.71296a78.361016 78.361016 0 0 0 2.419441 1.97917c0.382933 0.251876 0.637881 0.636857 1.017742 0.760747l0.064504 0.125938L499.413378 899.034796c0.443342 0.251876 1.016718 0.505799 1.526613 0.761771 0.508871 0.383957 1.01979 0.636857 1.466204 0.888732 0.825252 0.382933 1.650503 0.767914 2.544355 1.018766 0.421841 0.137201 0.845729 0.265186 1.271665 0.383957 0.319452 0.124914 0.636857 0.2529 0.956309 0.2529 1.649479 0.383957 3.305102 0.636857 5.027277 0.636856v0.124914c0.064505-0.124914 0.064505-0.2529 0.064505-0.252899 1.720127 0 3.376774-0.251876 4.969939-0.636857 0.380885 0 0.637881-0.124914 1.016718-0.2529 0.447438-0.130033 0.893852-0.258019 1.271666-0.382933 0.894876-0.258019 1.719103-0.636857 2.485993-1.019789 0.506823-0.251876 1.016718-0.508871 1.463132-0.760747 0.508871-0.383957 1.084295-0.636857 1.466204-0.894876 0.063481 0 0.126962 0 0.126962-0.124914L786.700242 719.794455c0.44539-0.259043 0.76689-0.636857 1.144703-0.894876 0.760747-0.637881 1.595213-1.271666 2.231046-1.847089 0.573376-0.636857 1.01979-1.272689 1.462109-1.719103 0.383957-0.637881 0.894876-1.144704 1.340266-1.719104 0.378838-0.637881 0.69829-1.335146 1.016718-1.974051 0.382933-0.636857 0.76689-1.272689 1.018766-1.973027 0.319452-0.76689 0.510919-1.335146 0.700337-2.10306 0.19249-0.761771 0.44539-1.335146 0.5744-2.099989 0.259043-1.144704 0.318428-2.230022 0.381909-3.374726 0-0.2529 0.125938-0.636857 0.125938-1.020814v-134.794503c0-1.719103-0.251876-3.434111-0.636857-4.967891l136.577088-90.735694a33.312109 33.312109 0 0 0 3.951173-3.37063c0.251876-0.320476 0.442318-0.704433 0.697266-0.956309 1.14368-1.274737 2.036508-2.67746 2.865855-4.139569 0.126962-0.187371 0.253924-0.382933 0.378838-0.636856 0.126962-0.189419 0.126962-0.381909 0.260067-0.5744 0.378838-0.825252 0.636857-1.594189 0.888732-2.419441 0.259043-0.69829 0.381909-1.272689 0.637881-1.847089 0.125938-0.767914 0.259043-1.468252 0.259043-2.294527 0.12389-0.697266 0.253924-1.334123 0.253923-2.106132 0-0.760747 0-1.459037-0.064505-2.223879-0.064505-0.767914-0.064505-1.340266-0.187371-2.103061-0.134129-0.69829-0.383957-1.400675-0.510918-2.098965-0.259043-0.76689-0.381909-1.464156-0.697266-2.166541-0.259043-0.636857-0.5744-1.207161-0.830371-1.78156a15.837458 15.837458 0 0 0-1.271666-2.29248c-0.126962-0.126962-0.126962-0.383957-0.251876-0.511942-0.259043-0.380885-0.636857-0.69829-0.893852-1.01979a24.209769 24.209769 0 0 0-1.595213-1.974051 11.174684 11.174684 0 0 0-1.585998-1.462108 11.782872 11.782872 0 0 0-1.720128-1.403747c-0.697266-0.5744-1.464156-1.01979-2.230022-1.400675-0.378838-0.190443-0.761771-0.573376-1.144704-0.697266l-105.438687-50.939319 121.357032-64.182251c0.126962-0.126962 0.251876-0.126962 0.382934-0.253924l1.145727-0.76689c1.270642-0.825252 2.35596-1.591118 3.371655-2.609884 0.382933-0.320476 0.767914-0.697266 1.14368-1.084294 1.146752-1.211256 2.106132-2.480874 2.865855-3.884621 0.187371-0.061433 0.318428-0.187371 0.44539-0.314333h0.003071v0.002048z m-290.793671 287.097445l-107.542771-70.165838 217.760955-117.344425 99.582063 48.073464L664.329563 594.153487h-0.001024z m-304.101108 0L150.364727 454.715664l99.585135-48.073464L467.707745 523.986625l-107.478267 70.166862h-0.002047z m-0.123891-424.308318l106.14312 59.46726-216.232294 125.757691-113.148543-59.791831L360.104564 169.845169h-0.001024z m152.174957 326.44843L297.192954 380.340634l215.085543-124.988753 215.147999 124.988753-215.147999 115.952965z m45.975523-267.042603l106.142096-59.470331 223.300174 125.436191-113.080967 59.788759-216.357208-125.753595h-0.004095v-0.001024zM347.495417 640.444366c0.253924 0.126962 0.573376 0.260067 0.888732 0.383957 1.271666 0.760747 2.551522 1.334123 3.949126 1.847089 0.5744 0.253924 1.144704 0.509895 1.848113 0.760747 1.847089 0.509895 3.754587 0.767914 5.670277 0.767914 0.062457 0 0.12389 0.126962 0.253923 0.126962 0.062457 0 0.12389-0.126962 0.251876-0.126962 1.914666 0 3.82114-0.259043 5.670277-0.767914a47.008623 47.008623 0 0 0 1.783608-0.760747c1.334123-0.383957 2.670293-1.01979 3.949126-1.720127 0.253924-0.12389 0.5744-0.251876 0.825251-0.381909L489.553362 564.231462v272.710832L273.382501 689.220215v-97.991969l74.119059 49.217144h-0.006143v-0.001024z m403.679075 48.773802L535.004655 836.938199V564.231462l116.966612 76.341914c0.320476 0.131057 0.573376 0.259043 0.830371 0.381909 1.272689 0.761771 2.609884 1.335146 3.941959 1.848113 0.638904 0.125938 1.145728 0.382933 1.720127 0.636857 1.846065 0.510919 3.823188 0.767914 5.730686 0.767914 0.064505 0 0.126962 0.126962 0.253924 0.126961 0 0 0.066553-0.126962 0.132081-0.126961 1.972003 0 3.941959-0.259043 5.858672-0.892828 0.636857-0.127986 1.211256-0.383957 1.71296-0.637881a24.975635 24.975635 0 0 0 3.949126-1.847089c0.320476-0.259043 0.637881-0.259043 0.895899-0.382933l74.174349-49.219192v97.992993h-0.001024l0.004095-0.003071z m0 0" fill="currentColor" p-id="16422"></path></svg>
