<svg t="1736694967672" class="icon" viewBox="0 0 1024 1024" version="1.1" xmlns="http://www.w3.org/2000/svg" p-id="16262" width="200" height="200"><path d="M827.733333 85.333333H196.266667a42.666667 42.666667 0 0 0-42.666667 38.912l-68.266667 768A42.666667 42.666667 0 0 0 128 938.666667h768a42.666667 42.666667 0 0 0 42.666667-46.421334l-68.266667-768a42.666667 42.666667 0 0 0-42.666667-38.912zM174.634667 853.333333L235.306667 170.666667h553.386666l60.672 682.666666z" fill="currentColor" p-id="16263"></path><path d="M696.149333 285.226667a42.666667 42.666667 0 0 0-42.666666 42.666666 141.482667 141.482667 0 0 1-282.965334 0 42.666667 42.666667 0 0 0-85.333333 0 226.816 226.816 0 0 0 453.632 0 42.666667 42.666667 0 0 0-42.666667-42.666666z" fill="currentColor" p-id="16264"></path></svg>
