<?xml version="1.0" standalone="no"?><!DOCTYPE svg PUBLIC "-//W3C//DTD SVG 1.1//EN" "http://www.w3.org/Graphics/SVG/1.1/DTD/svg11.dtd">
<svg t="1692225495480" class="icon" viewBox="0 0 1238 1024" version="1.1" xmlns="http://www.w3.org/2000/svg" p-id="225014" width="200" height="200">
<defs>
<style type="text/css"></style>
</defs>
<path d="M94.131677 411.508075v-318.012423h310.380124l523.448447 528.536646L719.344099 826.832298l-54.062111 54.062112-47.065839 46.429814z m902.519255 276.034782a90.951553 90.951553 0 0 0 0-127.204969L537.440994 94.131677h82.68323L1144.84472 622.668323l-311.652173 306.563975-40.70559-38.797515z m215.612422-127.204969L677.36646 19.080745a63.602484 63.602484 0 0 0-45.157764-19.080745H92.223602A92.223602 92.223602 0 0 0 0 91.587578v333.277018a63.602484 63.602484 0 0 0 18.44472 44.521739l534.26087 527.900622a93.495652 93.495652 0 0 0 130.385093 0l41.97764-41.97764 41.97764 41.97764a93.495652 93.495652 0 0 0 130.385093 0l313.560248-309.7441a90.951553 90.951553 0 0 0 1.908075-128.477018zM274.126708 318.012422a29.893168 29.893168 0 1 1 29.893168-29.893167 29.893168 29.893168 0 0 1-29.893168 29.893167z m0-153.918012a127.204969 127.204969 0 1 0 124.024845 123.38882 127.204969 127.204969 0 0 0-124.024845-124.024845z" p-id="225015"></path>
</svg>