<?xml version="1.0" standalone="no"?><!DOCTYPE svg PUBLIC "-//W3C//DTD SVG 1.1//EN" "http://www.w3.org/Graphics/SVG/1.1/DTD/svg11.dtd">
<svg t="1692223285778" class="icon" viewBox="0 0 1024 1024" version="1.1" xmlns="http://www.w3.org/2000/svg" p-id="131220" width="200" height="200">
<defs>
<style type="text/css"></style>
</defs>
<path d="M870.5 400.6L475.7 791c-65.4 64.7-171.5 64.7-236.9 0s-65.4-169.6 0-234.3l355.3-351.4c43.6-43.1 114.3-43.1 157.9 0 43.6 43.1 43.6 113 0 156.2L396.8 712.9c-21.8 21.6-57.2 21.6-79 0a54.808 54.808 0 0 1 0-78.1l315.8-312.3-39.5-39-315.8 312.3c-43.6 43.1-43.6 113 0 156.2 43.6 43.1 114.3 43.1 157.9 0l355.3-351.4c65.4-64.7 65.4-169.6 0-234.2-65.4-64.7-171.5-64.7-236.9 0l-375 370.8 1.4 1.3c-68.1 86.6-62.1 211.8 18.4 291.5 80.5 79.6 207.1 85.6 294.7 18.2l1.4 1.3L910 439.6l-39.5-39z" p-id="131221"></path>
</svg>