<svg t="1736697774739" class="icon" viewBox="0 0 1024 1024" version="1.1" xmlns="http://www.w3.org/2000/svg" p-id="17779" width="200" height="200"><path d="M257.6384 937.710933c-128.341333 0-232.789333-101.9904-232.789333-227.601066V289.723733c0-10.786133 4.232533-21.026133 12.151466-28.672 7.7824-7.645867 18.568533-11.8784 29.4912-11.8784h716.526934c10.922667 0 21.845333 4.369067 29.4912 11.8784 7.7824 7.645867 12.151467 17.885867 12.151466 28.672v52.8384h6.144c101.9904 0 184.866133 80.964267 184.866134 180.770134 0 99.669333-83.012267 180.770133-184.866134 180.770133H824.661333v6.144c0 125.474133-104.311467 227.464533-232.789333 227.464533H257.6384zM143.496533 330.410667c-19.524267 0-35.362133 15.5648-35.362133 34.679466v345.019734c0 80.554667 67.037867 146.2272 149.367467 146.2272h334.370133c82.466133 0 149.367467-65.672533 149.367467-146.2272V365.090133c0-19.2512-15.837867-34.679467-35.362134-34.679466H143.496533zM824.661333 423.799467v199.0656h6.144c36.0448 0 69.905067-18.978133 88.064-49.698134 18.158933-30.72 18.158933-68.8128 0-99.669333-18.158933-30.583467-51.746133-49.698133-88.064-49.698133H824.661333zM544.085333 190.190933c-22.9376 0-41.7792-18.295467-41.7792-40.686933V56.1152c0-22.391467 18.705067-40.686933 41.7792-40.686933s41.7792 18.295467 41.7792 40.686933v93.3888c0 22.528-18.8416 40.686933-41.7792 40.686933z m-238.7968 0c-22.9376 0-41.7792-18.295467-41.7792-40.686933V56.1152c0-22.391467 18.705067-40.686933 41.7792-40.686933s41.7792 18.295467 41.7792 40.686933v93.3888c-0.136533 22.528-18.8416 40.686933-41.7792 40.686933z" fill="currentColor" p-id="17780"></path></svg>
