<svg t="1736631022959" class="icon" viewBox="0 0 1024 1024" version="1.1" xmlns="http://www.w3.org/2000/svg" p-id="139535" width="200" height="200"><path d="M560.46 412.1c79.38-22.99 132.38-84.48 132.38-154.25 0-44.66-21.35-86.32-60.11-117.32-37.29-29.83-86.59-46.26-138.81-46.26-52.23 0-101.53 16.43-138.82 46.26-38.76 31-60.11 72.67-60.11 117.32 0 40.56 18.07 79.42 50.89 109.43 28.41 25.98 66.81 43.99 108.4 50.9 20.96 38.37 47.2 65.73 78.03 81.37 3.11 1.58 6.5 2.36 9.89 2.36 4.51 0 9.02-1.38 12.9-4.08 6.81-4.75 10.47-12.72 9.53-20.82-0.36-3.16-3.37-30.74-4.17-64.91z m-44.14 18.23c-10.04-11.71-19.26-25.99-27.51-42.62-3.39-6.83-9.93-11.42-17.5-12.28-75.03-8.55-131.61-59.1-131.61-117.58 0-65.54 69.18-118.86 154.21-118.86s154.2 53.32 154.2 118.86c0.01 53.79-47.16 101.04-114.7 114.9-10.34 2.12-17.85 11.32-17.87 21.87-0.02 11.48 0.24 23.44 0.78 35.71z" fill="currentColor" p-id="139536"></path><path d="M536.13 275.55c8.89 0 17.28-5.52 20.71-13.79 4.04-9.71 0.48-21.39-8.27-27.17-7.63-5.03-17.79-4.89-25.28 0.35-3.89 2.72-6.71 6.66-8.21 11.06-0.15-0.45-0.3-0.9-0.49-1.35-3.41-8.27-11.73-13.8-20.72-13.8h-0.17c-9.44 0.07-17.85 6.16-20.93 15.15v0.01c-1.55-4.57-4.52-8.67-8.68-11.42-7.63-5.05-17.8-4.9-25.29 0.35-7.65 5.37-11.18 15.4-8.59 24.41 2.61 9.06 10.68 15.55 20.08 16.15 0.47 0.03 0.95 0.04 1.42 0.04 8.96 0 17.14-5.4 20.63-13.79 0.19-0.45 0.35-0.91 0.5-1.38 1.4 4.11 3.95 7.84 7.5 10.55 3.98 3.04 8.79 4.58 13.61 4.58 4.15 0 8.31-1.14 11.96-3.44 4.39-2.78 7.51-6.99 9.11-11.72 2.89 8.53 10.68 14.57 19.73 15.15 0.47 0.05 0.92 0.06 1.38 0.06zM444.93 699.72c16.07-31.17 19.05-66.74 8.37-100.15l-27.32-85.49c-7.69-24.07-22.05-45.26-41.52-61.3-34.66-28.55-80.83-37.45-123.53-23.81-33.41 10.68-60.66 33.73-76.74 64.9-16.07 31.18-19.04 66.75-8.37 100.15l27.32 85.5c4.15 13 10.25 25.16 18.13 36.21l-0.52 1.55c-36.92 11.63-70.12 36.76-93.77 71.04-24.28 35.2-37.65 78.9-37.65 123.07 0 12.33 10.03 22.36 22.36 22.36h316.04c12.33 0 22.36-10.03 22.36-22.36 0-31-6.5-62.02-18.8-89.71-10.9-24.54-26.4-46.59-45.13-64.31a131.341 131.341 0 0 0 58.77-57.65z m-191.1 59.74l3.22-9.66c17.44 11.24 37.17 18.19 57.64 20.34l-2.88 8.64c-0.33 0.99-0.71 1.95-1.11 2.86-2.9 6.5-7.82 11.62-14.22 14.82-7.3 3.65-15.58 4.24-23.33 1.65-7.75-2.58-14.02-8.02-17.67-15.33-3.65-7.29-4.23-15.57-1.65-23.32z m56-242.4c-14.3 14.73-29.76 25.3-45.96 31.43-3.79 1.44-7.71 2.44-11.85 3.5-1.26 0.32-2.52 0.65-3.79 0.98a22.315 22.315 0 0 0-14.24 11.65c-2.94 5.91-3.11 12.76-0.46 18.88 0.07 0.19 0.15 0.39 0.24 0.58l0.05 0.1c0.53 1.11 1.38 3.01 2.41 5.7 5.7 14.92 9.97 35.21 4.87 47.42-0.73 1.75-1.73 3.37-2.96 4.81l-19.72-61.71c-7.04-22.03-5.08-45.48 5.52-66.04 10.61-20.56 28.58-35.75 50.6-42.8a86.858 86.858 0 0 1 26.43-4.13c13.78 0 27.34 3.32 39.57 9.64-9.34 15.16-19.65 28.59-30.71 39.99z m-102.25 254.8c0.42 10.68 3.12 21.36 7.9 30.93 9 17.99 24.45 31.4 43.52 37.75 18.79 6.27 39.73 4.79 57.47-4.08 17.99-8.99 31.4-24.45 37.76-43.52l1.09-3.28c26.44 24.86 43.85 60.34 48.69 99.34H135.45c6.26-50.27 33.22-93.91 72.13-117.14z m147-49.85c-30.19 9.64-64.38 1.48-87.1-20.79a86.054 86.054 0 0 1-12.71-15.82c11.9-6.82 21.27-16.9 26.74-28.89 10.12-22.17 6.74-47.73 2.12-65.28-0.2-0.77-0.42-1.5-0.65-2.21 0.25-0.11 0.51-0.21 0.76-0.32 4.89-2.03 9.78-4.37 14.53-6.94 7.8-4.21 15.78-9.49 23.7-15.69 13.85-10.83 27.16-24.53 39.56-40.71 4.3-5.61 8.49-11.53 12.52-17.68a86.137 86.137 0 0 1 9.32 19.99l27.32 85.49c14.54 45.5-10.63 94.32-56.11 108.85zM883.86 767.9c7.34-14.05 11.24-29.68 11.32-45.46 0.1-20.32-5.88-39.87-17.27-56.54-10.19-14.9-24.06-26.59-40.35-34.06l12.13-37.34c10.82-33.31 8-68.88-7.94-100.16-15.94-31.28-43.07-54.47-76.37-65.29-33.35-10.84-68.93-8.04-100.19 7.89-31.25 15.93-54.43 43.07-65.27 76.42l-27.73 85.36c-10.84 33.37-8.03 68.95 7.89 100.19 12.61 24.74 31.92 44.23 56.19 56.8-39.46 38.03-62.09 92.74-62.37 151.58-0.06 12.33 9.92 22.41 22.27 22.47l262.4 0.64c1.72 0.42 3.46 0.64 5.19 0.65l48.44 0.23h0.11c12.28 0 22.3-9.96 22.36-22.25 0.24-52.2-18.23-103.37-50.81-141.13z m-114.99-18.49l4.77 13.81c-1.72 20.46-18.87 36.32-39.53 36.32-15.27 0-29.79-9.37-36.12-23.31-0.8-1.75-1.46-3.55-1.99-5.37 2.13 0.01 4.26-0.03 6.41-0.12 23.84-0.97 46.66-8.31 66.46-21.33z m80.04-13.78a175.77 175.77 0 0 0-19.49-11.45c-6.14-3.1-12.93-5.96-20.76-8.76-1.27-0.45-2.52-0.84-3.73-1.22a131.027 131.027 0 0 0 17.04-34.7l1.58-4.96c16.67 9.62 27.12 27.5 27.12 47.19 0.01 4.77-0.59 9.42-1.76 13.9z m-42.22-155.22c-0.24 0.76-0.43 1.5-0.61 2.22-0.04 0.16-0.08 0.33-0.13 0.5-0.04 0.01-0.08 0.01-0.12 0.02-2.02 0.33-4.11 0.59-6.21 0.77-8.78 0.77-17.12-0.09-24.81-2.56a60.551 60.551 0 0 1-12.49-5.64c-37.04-22-50.39-79.33-50.51-79.88-1.51-6.9-6.15-12.55-12.72-15.51-3.01-1.35-6.17-2.03-9.31-2.03-3.68 0-7.32 0.93-10.63 2.77-3.03 1.69-5.49 4.02-7.67 6.08-1.07 1.01-2.07 1.96-3.06 2.76-2.89 2.35-5.8 4.45-8.67 6.26 6.95-7.74 15.31-14.2 24.77-19.08 20.56-10.6 44.01-12.56 66.04-5.52 22.03 7.04 40 22.24 50.6 42.79 10.61 20.56 12.57 44.01 5.53 66.05z m-79.79 25.06c16.51 13.1 35.92 21.04 56.12 22.96 2.69 0.25 5.42 0.41 8.17 0.46-3.01 9.41-7.37 23.05-8.68 27.17l-0.71 2.21c-2.16 6.77-4.19 13.16-7.11 19.24-3.19 6.63-7.32 12.9-12.29 18.63-16.42 18.95-40.2 29.88-65.22 29.97h-0.12c-9.08 0-18.01-1.38-26.53-4.11-21.99-7.03-39.95-22.23-50.56-42.82-10.61-20.58-12.59-44.03-5.56-66.02l20.78-65.01c16.53 1.11 31.81-4.59 43.34-10.96 8.77 21.25 23.95 48.92 48.37 68.28z m-68.69 191.99c10.53 21.02 29.55 36.96 52.39 43.48 7.39 2.11 15.03 3.2 22.71 3.24h0.42c22.35 0 43.42-8.68 59.35-24.46 13.86-13.73 22.38-31.38 24.51-50.45 4.33 2.64 8.54 5.55 12.56 8.69 3.43 2.69 6.72 5.51 9.77 8.39 26.5 25.01 44.05 61.19 48.75 100.08l-17.06-0.08c-1.74-0.43-3.51-0.66-5.28-0.67l-246.23-0.56c4.23-33.3 17.56-63.93 38.11-87.66z" fill="currentColor" p-id="139537"></path></svg>
