<svg t="1736689875119" class="icon" viewBox="0 0 1024 1024" version="1.1" xmlns="http://www.w3.org/2000/svg" p-id="12942" width="200" height="200"><path d="M121.952 992h90.016c35.712 0 65.632-21.568 80.064-51.808 0.32 0.128 0.992 0.32 1.408 0.384l7.168 1.856c0.576 0.192 0.8 0.192 1.344 0.384a7680 7680 0 0 0 121.632 28.608c15.328 3.424 95.776 20.576 179.264 20.576h164.064c49.984 0 85.984-19.232 107.392-57.824 0.256-0.608 7.2-14.08 12.864-32.288 4.192-13.696 5.76-33.152 0.672-52.832 32.256-22.112 42.56-55.552 49.312-77.376 11.328-35.712 7.904-62.56 0.096-81.76 18.08-17.152 33.568-43.232 40.032-83.008a112.192 112.192 0 0 0-11.616-71.2c17.024-19.104 24.736-43.104 25.6-65.28l0.384-6.272c0.224-3.904 0.352-6.336 0.352-15.008 0-37.888-26.176-86.208-85.024-103.04-37.504-9.856-125.728-9.696-254.624-13.12 6.016-28.128 7.456-53.472 7.456-98.528C659.808 126.72 581.376 32 512 32c-48.992 0-89.376 40.032-90.016 89.248-0.704 60.416-19.36 164.768-120.032 217.728-7.36 3.84-28.512 14.24-31.552 15.648l1.536 1.312c-15.744-13.6-37.6-24-60-24H121.952A90.144 90.144 0 0 0 32 421.952v480.032A90.112 90.112 0 0 0 121.952 992z m173.824-584.352c1.888-0.736 4.416-1.536 6.176-2.304 137.056-56.704 178.784-181.216 180.032-283.392 0.192-14.336 11.232-29.984 30.016-29.984 31.712 0 87.808 63.712 87.808 142.496 0 71.104-2.88 83.424-27.808 157.504 300.064 0 297.952 4.32 324.448 11.264 32.8 9.376 35.616 36.576 35.616 45.952 0 10.304-0.352 8.8-0.736 18.88-0.544 14.816-6.816 43.936-59.264 43.936h-60a15.04 15.04 0 1 0 0 30.016h58.048c45.056 0 51.008 37.312 48 55.328-3.68 22.4-14.144 64.672-64.864 64.672h-71.2a14.976 14.976 0 1 0 0 30.016h59.008c50.688 0 46.208 38.624 38.912 61.6-9.568 30.272-15.36 58.4-79.232 58.4h-48.864a14.912 14.912 0 0 0-15.008 15.008c0 8.256 6.624 15.008 15.008 15.008h47.072c32.8 0 34.336 31.04 30.88 42.176-3.68 12.192-8.16 21.184-8.352 21.632-9.088 16.352-23.648 26.176-54.56 26.176h-164.064c-82.368 0-164.096-18.688-166.272-19.2-124.576-28.704-131.168-30.88-138.976-33.152 0 0-25.408-4.32-25.408-26.432l-0.224-414.336c0-14.048 8.992-26.816 23.808-31.264z m-203.808 14.304c0-16.608 13.44-30.016 30.016-30.016h90.016c16.608 0 30.016 13.408 30.016 30.016v480.032a29.984 29.984 0 0 1-30.016 30.016H121.952a30.016 30.016 0 0 1-30.016-30.016V421.952z m74.976 480.064a45.024 45.024 0 1 0-0.032-90.016 45.024 45.024 0 0 0 0.032 90.016z m0-60a14.976 14.976 0 1 1 0.032 29.984 14.976 14.976 0 0 1-0.032-29.984z" fill="#B4804B" p-id="12943"></path><path d="M121.952 932h90.016a29.984 29.984 0 0 0 30.016-30.016V421.952a29.984 29.984 0 0 0-30.016-30.016H121.952a30.016 30.016 0 0 0-30.016 30.016v480.032a30.048 30.048 0 0 0 30.016 30.016z m44.992-120a45.024 45.024 0 1 1-0.032 90.016 45.024 45.024 0 0 1 0.032-90.016z m105.248 41.248l-0.224-414.336c0-14.048 8.992-26.816 23.808-31.264 1.888-0.736 4.416-1.536 6.176-2.304 137.056-56.704 178.784-181.216 180.032-283.392 0.192-14.336 11.232-29.984 30.016-29.984 31.712 0 87.808 63.712 87.808 142.496 0 71.104-2.88 83.424-27.808 157.504 300.064 0 297.952 4.32 324.448 11.264 32.8 9.376 35.616 36.576 35.616 45.952 0 10.304-0.352 8.8-0.736 18.88-0.544 14.816-6.816 43.936-59.264 43.936h-60a15.04 15.04 0 1 0 0 30.016h58.048c45.056 0 51.008 37.312 48 55.328-3.68 22.4-14.144 64.672-64.864 64.672h-71.2a14.976 14.976 0 1 0 0 30.016h59.008c50.688 0 46.208 38.624 38.912 61.6-9.568 30.272-15.36 58.4-79.232 58.4h-48.864a14.912 14.912 0 0 0-15.008 15.008c0 8.256 6.624 15.008 15.008 15.008h47.072c32.8 0 34.336 31.04 30.88 42.176-3.68 12.192-8.16 21.184-8.352 21.632-9.088 16.352-23.648 26.176-54.56 26.176h-164.064c-82.368 0-164.096-18.688-166.272-19.2-124.576-28.704-131.168-30.88-138.976-33.152 0 0-25.408-4.32-25.408-26.432z m-120.224 3.744a15.008 15.008 0 1 1 30.016 0 15.008 15.008 0 0 1-30.016 0z" fill="#FDDAA7" p-id="12944"></path></svg>
