<svg t="1736630111321" class="icon" viewBox="0 0 1024 1024" version="1.1" xmlns="http://www.w3.org/2000/svg" p-id="105015" width="200" height="200"><path d="M510.464 435.2c13.824-16.384 37.888-18.432 54.272-4.608 43.008 36.352 67.072 88.064 72.704 152.576 5.12 60.928-1.536 114.176-21.504 158.208-8.192 19.456-31.232 28.672-50.688 19.968a38.2976 38.2976 0 0 1-19.968-50.688v-0.512c13.824-31.744 18.944-71.68 14.848-120.832-3.584-44.032-17.92-75.776-42.496-97.792l-3.072-2.56a38.2976 38.2976 0 0 1-4.608-54.272z" fill="currentColor" p-id="105016"></path><path d="M462.848 92.16c4.608 20.992-8.704 40.96-29.696 45.568a381.3376 381.3376 0 0 0-205.824 121.344c-36.352 41.472-62.976 91.136-78.336 144.384A377.344 377.344 0 0 0 408.064 870.4a377.344 377.344 0 0 0 466.944-259.072c7.68-26.112 12.288-53.248 13.824-79.872 1.024-20.992 19.456-37.376 40.448-36.352s37.376 19.456 36.352 40.448v1.024c-2.048 32.768-7.68 64.512-16.896 96.256-69.12 241.152-321.024 380.928-562.176 311.808-240.64-69.632-380.416-321.024-310.784-562.688a459.264 459.264 0 0 1 94.208-173.568 456.2944 456.2944 0 0 1 247.808-145.92c20.992-4.608 40.96 8.704 45.568 29.696z m132.608 143.36c60.928-73.728 138.24-101.376 226.304-79.872 11.776 3.072 21.504 11.264 26.112 22.528 34.816 82.944 19.968 164.864-41.984 239.616-62.464 75.264-139.776 104.448-226.816 83.968-3.072-1.024-6.144-2.048-9.216-3.584 0 12.8-5.632 25.088-15.872 32.256-57.344 41.472-122.368 46.592-187.904 15.36C300.032 514.048 264.192 460.8 262.144 390.144c0-11.776 5.12-23.552 14.336-31.232 54.272-43.52 118.784-48.64 186.368-16.384 30.72 14.848 54.784 33.792 72.704 56.32-2.56-58.368 17.408-113.664 59.392-164.352zM430.08 412.672c-34.304-16.384-62.464-17.408-88.576-4.096s0 2.048 0 2.048c6.144 29.696 25.088 51.2 57.856 66.56 33.28 15.872 61.952 16.896 90.624 3.584h1.024l-1.024-4.096c-7.168-26.112-25.088-46.08-55.808-61.952l-4.096-2.048z m348.672-186.368c-47.616-4.608-88.064 13.824-124.416 58.368-37.888 46.08-50.176 93.184-36.864 145.408v1.024h3.072c46.08 4.096 86.016-14.848 122.88-58.368l3.072-3.584c39.424-47.616 51.2-93.184 37.376-141.824s-4.608-1.024-4.608-1.024z" fill="currentColor" p-id="105017"></path></svg>
