<?xml version="1.0" standalone="no"?><!DOCTYPE svg PUBLIC "-//W3C//DTD SVG 1.1//EN" "http://www.w3.org/Graphics/SVG/1.1/DTD/svg11.dtd"><svg t="1785821915957" class="icon" viewBox="0 0 1024 1024" version="1.1" xmlns="http://www.w3.org/2000/svg" p-id="7764" xmlns:xlink="http://www.w3.org/1999/xlink" width="200" height="200"><path d="M192 170.666667a21.333333 21.333333 0 0 0-21.333333 21.333333v640a21.333333 21.333333 0 0 0 21.333333 21.333333h640a21.333333 21.333333 0 0 0 21.333333-21.333333v-640a21.333333 21.333333 0 0 0-21.333333-21.333333h-640zM85.333333 192A106.666667 106.666667 0 0 1 192 85.333333h640A106.666667 106.666667 0 0 1 938.666667 192v640a106.666667 106.666667 0 0 1-106.666667 106.666667h-640A106.666667 106.666667 0 0 1 85.333333 832v-640z" p-id="7765"></path><path d="M85.333333 341.333333a42.666667 42.666667 0 0 1 42.666667-42.666666h768a42.666667 42.666667 0 1 1 0 85.333333H128a42.666667 42.666667 0 0 1-42.666667-42.666667z" p-id="7766"></path><path d="M128 234.666667a42.666667 42.666667 0 0 1 42.666667 42.666666v128a42.666667 42.666667 0 1 1-85.333334 0v-128a42.666667 42.666667 0 0 1 42.666667-42.666666zM896 234.666667a42.666667 42.666667 0 0 1 42.666667 42.666666v128a42.666667 42.666667 0 1 1-85.333334 0v-128a42.666667 42.666667 0 0 1 42.666667-42.666666z" p-id="7767"></path></svg>