<svg t="1736631395673" class="icon" viewBox="0 0 1045 1024" version="1.1" xmlns="http://www.w3.org/2000/svg" p-id="154068" width="200" height="200"><path d="M834.500689 281.275062H328.344151V87.651936c0-28.812443-23.361328-52.173771-52.173771-52.173772-28.80827 0-52.173771 23.361328-52.173771 52.173772v193.623126h-13.235443C116.410118 281.275062 39.652066 358.033114 39.652066 452.379988v305.191519c0 65.313214 36.797117 122.174277 90.736449 150.999241v31.254176c0 28.80827 23.361328 52.173771 52.173772 52.173772s52.173771-23.365502 52.173771-52.173772v-11.148491h547.586686v11.148491c0 28.80827 23.361328 52.173771 52.173771 52.173772s52.173771-23.365502 52.173771-52.173772v-19.308469c68.906943-22.117505 118.931155-86.787938 118.931155-162.944948v-305.191519c0.004174-94.346874-76.753878-171.104926-171.100752-171.104926z m66.75321 476.296445c0 36.809639-29.947745 66.757384-66.749036 66.757383H210.756993c-36.809639 0-66.757384-29.947745-66.757384-66.757383v-305.191519c0-36.809639 29.947745-66.757384 66.761557-66.757384h623.739523c36.805465 0 66.75321 29.947745 66.75321 66.757384v305.191519z" fill="currentColor" p-id="154069"></path><path d="M682.524754 427.962663c-99.814685 0-181.017943 81.203258-181.017943 181.013769 0 99.814685 81.203258 181.017943 181.017943 181.017943s181.017943-81.203258 181.017943-181.017943c0-99.810511-81.203258-181.013769-181.017943-181.013769z m0 257.688343c-42.27745 0-76.6704-34.39295-76.6704-76.6704s34.39295-76.6704 76.6704-76.6704 76.6704 34.39295 76.6704 76.6704-34.39295 76.6704-76.6704 76.6704zM380.292532 450.493385H249.465757c-28.812443 0-52.173771 23.361328-52.173771 52.173771s23.361328 52.173771 52.173771 52.173771h130.826775c28.812443 0 52.173771-23.357154 52.173771-52.173771s-23.361328-52.173771-52.173771-52.173771zM380.292532 601.133671H249.465757c-28.812443 0-52.173771 23.361328-52.173771 52.173771 0 28.80827 23.361328 52.173771 52.173771 52.173771h130.826775c28.812443 0 52.173771-23.365502 52.173771-52.173771 0-28.812443-23.361328-52.173771-52.173771-52.173771z" fill="currentColor" p-id="154070"></path></svg>
