<svg t="1732388500193" class="icon" viewBox="0 0 1024 1024" version="1.1" xmlns="http://www.w3.org/2000/svg" p-id="32433" width="200" height="200"><path d="M679.936 585.728A40.96 40.96 0 0 0 655.36 532.48a271.5648 271.5648 0 1 0-319.488 0 441.1392 441.1392 0 0 0-281.3952 409.6 40.96 40.96 0 0 0 81.92 0 358.8096 358.8096 0 0 1 349.7984-357.9904h18.0224a351.4368 351.4368 0 0 1 122.88 24.576 40.96 40.96 0 0 0 52.8384-22.9376zM305.152 312.5248a190.0544 190.0544 0 1 1 195.7888 189.2352h-11.8784a189.6448 189.6448 0 0 1-183.9104-189.2352zM641.8432 655.36a40.96 40.96 0 0 0 40.96 40.96h245.76a40.96 40.96 0 0 0 0-81.92h-245.76a40.96 40.96 0 0 0-40.96 40.96zM928.5632 757.76h-245.76a40.96 40.96 0 0 0 0 81.92h245.76a40.96 40.96 0 0 0 0-81.92zM928.5632 901.12h-245.76a40.96 40.96 0 0 0 0 81.92h245.76a40.96 40.96 0 0 0 0-81.92z" fill="currentColor" p-id="32434"></path></svg>
