<svg class="icon" viewBox="0 0 1024 1024" version="1.1" xmlns="http://www.w3.org/2000/svg" p-id="2361" width="200" height="200"><path d="M512 0C229.184 0 0 229.184 0 512c0 282.816 229.184 512 512 512 282.816 0 512-229.184 512-512 0-282.816-229.184-512-512-512z m0 42.592c258.688 0 469.44 210.464 469.44 469.408 0 114.464-41.12 219.328-109.312 300.8-49.248-20.192-162.208-59.328-228.672-79.04-5.92-1.728-6.624-2.208-6.624-26.336 0-19.936 8.128-40.128 16.256-57.344a286.784 286.784 0 0 0 22.624-77.792c10.336-12.064 24.64-35.68 33.504-80.992 7.872-39.904 4.192-54.4-0.992-67.936-0.512-1.472-1.248-2.944-1.504-4.192-1.952-9.344 0.736-57.856 7.648-95.52 4.672-25.856-1.216-80.736-36.672-126.272-22.4-28.8-65.472-64-144-68.928h-43.072c-77.28 4.928-120.096 40.096-142.752 68.928-35.68 45.536-41.6 100.416-36.928 126.272 6.88 37.664 9.6 86.144 7.616 95.52-0.48 1.728-0.992 2.944-1.472 4.416-5.184 13.536-9.12 28.064-0.992 67.936 9.12 45.312 23.136 68.928 33.472 80.992 3.712 28.064 14.016 59.072 22.656 77.792 6.4 13.536 9.344 32 9.344 58.08 0 24.384-0.992 24.64-6.4 26.304-69.184 20.512-178.72 59.872-222.56 78.848A467.104 467.104 0 0 1 42.592 512C42.592 253.312 253.312 42.592 512 42.592z" fill="currentColor" p-id="2362"></path></svg>