<svg t="1736632394436" class="icon" viewBox="0 0 1024 1024" version="1.1" xmlns="http://www.w3.org/2000/svg" p-id="162095" width="200" height="200"><path d="M10.24 481.0752h60.6208c16.1792 0 29.184-1.4336 39.1168-4.4032 9.9328-2.9696 19.6608-8.4992 29.184-16.5888l17.6128-17.6128c7.3728-7.3728 15.0528-15.7696 23.1424-25.3952 8.0896-9.5232 16.384-19.2512 24.7808-29.184 8.4992-9.9328 16.384-19.2512 23.7568-28.16 14.7456-18.3296 27.9552-25.4976 39.7312-21.504 11.776 3.9936 20.5824 12.6976 26.4192 25.9072L343.2448 497.664c24.9856-69.8368 47.0016-133.0176 66.1504-189.6448 8.0896-24.2688 16.1792-47.9232 24.2688-71.168 8.0896-23.1424 15.4624-44.4416 22.016-64 6.656-19.456 12.0832-35.6352 16.5888-48.5376 4.4032-12.9024 6.9632-21.0944 7.68-24.7808 3.6864-12.4928 9.216-22.6304 16.5888-30.3104 7.3728-7.68 15.4624-11.5712 24.2688-11.5712 9.5232 0 19.456 2.7648 29.7984 8.2944 10.3424 5.5296 16.896 16.6912 19.8656 33.5872 0.7168 4.4032 2.2528 16.1792 4.4032 35.328 2.2528 19.1488 5.12 43.008 8.8064 71.68 3.6864 28.672 7.5776 60.5184 11.5712 95.4368 3.9936 34.9184 8.2944 70.3488 12.6976 106.3936 9.5232 84.5824 20.5824 178.9952 33.0752 283.4432 16.1792-52.9408 30.9248-101.0688 44.1344-144.4864 5.12-18.3296 10.4448-36.5568 15.9744-54.5792 5.5296-18.0224 10.6496-34.5088 15.4624-49.664 4.8128-15.0528 8.6016-27.7504 11.5712-38.0928 2.9696-10.3424 5.12-16.896 6.656-19.8656 3.6864-11.776 8.0896-20.5824 13.2096-26.4192 5.12-5.8368 12.0832-9.9328 20.992-12.0832 16.896-4.4032 29.5936-2.048 38.0928 7.168 8.4992 9.216 12.6976 18.5344 12.6976 28.16 0 8.0896-0.7168 15.0528-2.2528 20.992-0.7168 2.9696-1.1264 5.5296-1.1264 7.68L856.064 518.5536c0.7168-0.7168 1.8432-2.2528 3.2768-4.4032 2.2528-3.6864 5.8368-11.3664 11.0592-23.1424 5.8368-12.4928 15.6672-20.7872 29.184-24.7808 13.6192-3.9936 26.624-5.7344 39.1168-4.9152 8.0896 0.7168 16.1792 1.1264 24.2688 1.1264H1013.76v83.7632c-4.4032 0.7168-8.8064 1.1264-13.2096 1.1264h-28.672c-10.3424-0.7168-19.8656 2.048-28.672 8.2944-8.8064 6.2464-15.0528 12.288-18.7392 18.2272-2.9696 5.8368-8.0896 17.3056-15.4624 34.2016-7.3728 16.896-13.9264 34.2016-19.8656 51.8144-2.9696 8.8064-7.68 14.7456-14.336 17.6128-6.656 2.9696-13.4144 4.1984-20.3776 3.8912-6.9632-0.4096-13.6192-2.3552-19.8656-6.0416-6.2464-3.6864-10.4448-8.0896-12.6976-13.2096-2.2528-5.12-5.8368-14.1312-11.0592-27.0336-5.12-12.9024-10.24-25.9072-15.4624-39.1168-6.656-15.4624-13.2096-31.9488-19.8656-49.664-19.1488 61.0304-36.352 117.248-51.8144 168.7552-6.656 22.016-13.2096 43.7248-19.8656 65.024-6.656 21.2992-12.6976 40.96-18.2272 58.9824s-10.1376 33.28-13.824 45.7728c-3.6864 12.4928-5.8368 20.992-6.656 25.3952-3.6864 17.6128-10.6496 31.6416-20.992 41.8816-10.3424 10.3424-22.8352 15.0528-37.4784 14.336-15.4624-1.4336-26.4192-8.0896-33.0752-19.8656-6.656-11.776-10.6496-25.3952-12.0832-40.7552 0-3.6864-0.9216-15.0528-2.7648-34.2016-1.8432-19.1488-4.1984-43.4176-7.168-72.8064-2.9696-29.3888-6.0416-62.1568-9.4208-98.0992-3.2768-36.0448-6.7584-72.8064-10.4448-110.2848-8.0896-87.4496-17.6128-185.2416-28.672-293.376-20.5824 60.3136-39.0144 114.2784-55.0912 162.0992-6.656 20.5824-13.4144 40.7552-20.3776 60.6208-6.9632 19.8656-13.2096 37.888-18.7392 54.0672s-10.1376 29.7984-13.824 40.7552l-6.656 19.8656c-3.6864 9.5232-8.6016 18.3296-14.848 26.4192-6.2464 8.0896-15.9744 11.776-29.184 11.0592-13.2096 0-23.1424-4.608-29.7984-13.824S302.6944 638.464 299.008 626.688c-2.2528-5.8368-6.2464-17.3056-12.0832-34.2016-5.8368-16.896-12.0832-34.2016-18.7392-51.8144-8.0896-20.5824-16.5888-43.4176-25.3952-68.4032-5.12 6.656-10.6496 13.2096-16.5888 19.8656-5.12 5.8368-10.6496 12.288-16.5888 19.2512-5.8368 6.9632-11.776 13.824-17.6128 20.3776-11.776 13.9264-22.8352 23.552-33.0752 28.672-10.3424 5.12-22.4256 6.9632-36.352 5.5296-7.3728-0.7168-17.1008-0.9216-29.184-0.512s-24.4736 0.512-36.9664 0.512c-13.9264 0.7168-29.3888 1.1264-46.2848 1.1264l0.1024-86.016z" fill="currentColor" p-id="162096"></path><path d="M10.24 481.0752h60.6208c16.1792 0 29.184-1.4336 39.1168-4.4032 9.9328-2.9696 19.6608-8.4992 29.184-16.5888l17.6128-17.6128c7.3728-7.3728 15.0528-15.7696 23.1424-25.3952 8.0896-9.5232 16.384-19.2512 24.7808-29.184 8.4992-9.9328 16.384-19.2512 23.7568-28.16 14.7456-18.3296 27.9552-25.4976 39.7312-21.504 11.776 3.9936 20.5824 12.6976 26.4192 25.9072L343.2448 497.664c24.9856-69.8368 47.0016-133.0176 66.1504-189.6448 8.0896-24.2688 16.1792-47.9232 24.2688-71.168 8.0896-23.1424 15.4624-44.4416 22.016-64 6.656-19.456 12.0832-35.6352 16.5888-48.5376 4.4032-12.9024 6.9632-21.0944 7.68-24.7808 3.6864-12.4928 9.216-22.6304 16.5888-30.3104 7.3728-7.68 15.4624-11.5712 24.2688-11.5712 9.5232 0 19.456 2.7648 29.7984 8.2944 10.3424 5.5296 16.896 16.6912 19.8656 33.5872 0.7168 4.4032 2.2528 16.1792 4.4032 35.328 2.2528 19.1488 5.12 43.008 8.8064 71.68 3.6864 28.672 7.5776 60.5184 11.5712 95.4368 3.9936 34.9184 8.2944 70.3488 12.6976 106.3936 9.5232 84.5824 20.5824 178.9952 33.0752 283.4432 16.1792-52.9408 30.9248-101.0688 44.1344-144.4864 5.12-18.3296 10.4448-36.5568 15.9744-54.5792 5.5296-18.0224 10.6496-34.5088 15.4624-49.664 4.8128-15.0528 8.6016-27.7504 11.5712-38.0928 2.9696-10.3424 5.12-16.896 6.656-19.8656 3.6864-11.776 8.0896-20.5824 13.2096-26.4192 5.12-5.8368 12.0832-9.9328 20.992-12.0832 16.896-4.4032 29.5936-2.048 38.0928 7.168 8.4992 9.216 12.6976 18.5344 12.6976 28.16 0 8.0896-0.7168 15.0528-2.2528 20.992-0.7168 2.9696-1.1264 5.5296-1.1264 7.68L856.064 518.5536c0.7168-0.7168 1.8432-2.2528 3.2768-4.4032 2.2528-3.6864 5.8368-11.3664 11.0592-23.1424 5.8368-12.4928 15.6672-20.7872 29.184-24.7808 13.6192-3.9936 26.624-5.7344 39.1168-4.9152 8.0896 0.7168 16.1792 1.1264 24.2688 1.1264H1013.76v83.7632c-4.4032 0.7168-8.8064 1.1264-13.2096 1.1264h-28.672c-10.3424-0.7168-19.8656 2.048-28.672 8.2944-8.8064 6.2464-15.0528 12.288-18.7392 18.2272-2.9696 5.8368-8.0896 17.3056-15.4624 34.2016-7.3728 16.896-13.9264 34.2016-19.8656 51.8144-2.9696 8.8064-7.68 14.7456-14.336 17.6128-6.656 2.9696-13.4144 4.1984-20.3776 3.8912-6.9632-0.4096-13.6192-2.3552-19.8656-6.0416-6.2464-3.6864-10.4448-8.0896-12.6976-13.2096-2.2528-5.12-5.8368-14.1312-11.0592-27.0336-5.12-12.9024-10.24-25.9072-15.4624-39.1168-6.656-15.4624-13.2096-31.9488-19.8656-49.664-19.1488 61.0304-36.352 117.248-51.8144 168.7552-6.656 22.016-13.2096 43.7248-19.8656 65.024-6.656 21.2992-12.6976 40.96-18.2272 58.9824s-10.1376 33.28-13.824 45.7728c-3.6864 12.4928-5.8368 20.992-6.656 25.3952-3.6864 17.6128-10.6496 31.6416-20.992 41.8816-10.3424 10.3424-22.8352 15.0528-37.4784 14.336-15.4624-1.4336-26.4192-8.0896-33.0752-19.8656-6.656-11.776-10.6496-25.3952-12.0832-40.7552 0-3.6864-0.9216-15.0528-2.7648-34.2016-1.8432-19.1488-4.1984-43.4176-7.168-72.8064-2.9696-29.3888-6.0416-62.1568-9.4208-98.0992-3.2768-36.0448-6.7584-72.8064-10.4448-110.2848-8.0896-87.4496-17.6128-185.2416-28.672-293.376-20.5824 60.3136-39.0144 114.2784-55.0912 162.0992-6.656 20.5824-13.4144 40.7552-20.3776 60.6208-6.9632 19.8656-13.2096 37.888-18.7392 54.0672s-10.1376 29.7984-13.824 40.7552l-6.656 19.8656c-3.6864 9.5232-8.6016 18.3296-14.848 26.4192-6.2464 8.0896-15.9744 11.776-29.184 11.0592-13.2096 0-23.1424-4.608-29.7984-13.824S302.6944 638.464 299.008 626.688c-2.2528-5.8368-6.2464-17.3056-12.0832-34.2016-5.8368-16.896-12.0832-34.2016-18.7392-51.8144-8.0896-20.5824-16.5888-43.4176-25.3952-68.4032-5.12 6.656-10.6496 13.2096-16.5888 19.8656-5.12 5.8368-10.6496 12.288-16.5888 19.2512-5.8368 6.9632-11.776 13.824-17.6128 20.3776-11.776 13.9264-22.8352 23.552-33.0752 28.672-10.3424 5.12-22.4256 6.9632-36.352 5.5296-7.3728-0.7168-17.1008-0.9216-29.184-0.512s-24.4736 0.512-36.9664 0.512c-13.9264 0.7168-29.3888 1.1264-46.2848 1.1264l0.1024-86.016z" fill="currentColor" p-id="162097"></path></svg>
