<svg t="1736629209313" class="icon" viewBox="0 0 1024 1024" version="1.1" xmlns="http://www.w3.org/2000/svg" p-id="60765" width="200" height="200"><path d="M848.05 465.72v366.74c0 45.87-37.32 83.19-83.19 83.19H259.14c-45.87 0-83.19-37.32-83.19-83.19V465.72h672.1m80.04-80.04H95.91v446.78c0 90.15 73.08 163.23 163.23 163.23h505.72c90.15 0 163.23-73.08 163.23-163.23V385.68z" fill="currentColor" p-id="60766"></path><path d="M930.36 190.52h-76.8c7.11-42.84-5.84-88.36-38.9-121.42-27.19-27.19-62.84-40.79-98.48-40.79s-71.29 13.6-98.48 40.79L512.19 174.6 406.68 69.1c-27.19-27.19-62.83-40.79-98.48-40.79s-71.29 13.6-98.48 40.79c-27.19 27.19-40.79 62.83-40.79 98.47 0 7.68 0.63 15.36 1.89 22.95H93.63C41.92 190.52 0 232.44 0 284.16v87.1c0 51.72 41.92 93.64 93.64 93.64h836.73c51.72 0 93.64-41.92 93.64-93.64v-87.1c0-51.72-41.92-93.64-93.64-93.64zM674.3 125.69c11.19-11.19 26.06-17.34 41.88-17.34s30.7 6.15 41.88 17.34c17.5 17.5 21.73 43.31 12.72 64.83H609.47l64.83-64.83z m-407.98 0c11.19-11.19 26.06-17.34 41.88-17.34s30.7 6.15 41.88 17.34l64.83 64.83H253.6c-9.01-21.52-4.78-47.33 12.72-64.83z m677.64 245.57c0 7.49-6.09 13.6-13.6 13.6H93.64c-7.49 0-13.6-6.1-13.6-13.6v-87.1c0-7.49 6.1-13.6 13.6-13.6h836.73c7.5 0 13.6 6.1 13.6 13.6v87.1z" fill="currentColor" p-id="60767"></path><path d="M471.98 240.59h80.04v702.99h-80.04z" fill="currentColor" p-id="60768"></path></svg>
